<svg width="1766" height="721" viewBox="0 0 1766 721" fill="none" xmlns="http://www.w3.org/2000/svg">
<path d="M109.665 491.821C117.062 517.316 124.423 542.467 131.784 567.617C138.094 589.179 144.404 610.741 150.789 632.558C152.154 632.558 153.646 632.558 155.603 632.558C155.603 630.879 155.602 629.216 155.602 627.552C155.603 580.663 155.539 533.773 155.649 486.884C155.676 475.538 159.012 465.072 166.73 456.567C171.61 451.189 178.206 448.079 185.367 447.212C194.693 446.084 204.093 445.652 213.133 449.429C225.071 454.418 230.458 464.278 232.851 476.138C233.95 481.589 234.535 487.238 234.547 492.799C234.669 547.054 234.845 601.312 234.457 655.564C234.364 668.438 233.762 681.469 228.03 693.663C221.454 707.653 210.622 716.19 195.844 719.148C183.534 721.612 170.922 721.543 158.799 717.637C146.062 713.534 136.821 705.089 129.876 693.615C121.966 680.546 118.534 665.908 114.137 651.623C108.629 633.729 103.747 615.642 98.5598 597.648C96.3701 590.052 94.0112 582.505 91.8804 574.893C90.5605 570.178 87.0623 566.196 84.1786 566.55C80.923 566.951 78.2617 571.389 78.2592 576.631C78.2429 610.913 78.3363 645.195 78.1996 679.476C78.1569 690.18 75.0796 700.14 68.2651 708.527C63.4348 714.472 56.7819 718.173 49.244 718.948C39.6813 719.931 30.0601 720.725 20.7574 716.272C9.62658 710.943 4.18407 701.639 1.9159 690.348C0.493023 683.264 0.145889 675.87 0.127965 668.613C-0.00949326 612.941 -0.0918794 557.268 0.178055 501.597C0.229884 490.912 1.4015 480.125 6.87351 470.437C14.5876 456.78 26.303 448.995 41.7347 446.642C53.5476 444.842 65.0142 445.558 76.358 449.893C90.1555 455.167 98.4979 465.519 104.49 478.278C106.492 482.541 107.932 487.069 109.665 491.821Z" fill="#67B983"/>
<path d="M294.239 152.956C302.356 151.177 310.49 149.471 318.586 147.603C330.071 144.954 341.422 141.516 353.03 139.663C363.935 137.922 375.068 137.557 386.084 140.203C396.396 142.679 406.82 153.268 406.597 166.051C406.411 176.753 403.825 185.657 394.507 191.624C388.64 195.382 381.949 196.688 375.107 197.184C354.955 198.644 335.817 193.286 316.61 188.402C309.086 186.488 301.55 184.626 293.678 182.655C293.553 183.968 293.369 185.019 293.367 186.07C293.348 200.801 293.266 215.533 293.391 230.263C293.456 237.839 297.458 244.053 307.019 238.823C320.71 231.333 334.528 224.163 349.416 219.228C362.235 214.98 375.401 213.244 388.755 214.331C400.017 215.246 410.799 218.412 418.817 227.134C429.473 238.725 432.808 252.685 430.324 267.926C429.336 273.986 427.509 280.099 424.941 285.671C420.237 295.881 411.252 301.658 400.746 304.069C391.562 306.178 381.998 307.315 372.57 307.54C351.618 308.038 330.64 308.025 309.686 307.581C295.181 307.274 280.605 306.634 266.49 302.596C247.521 297.169 233.293 286.274 224.89 267.899C218.895 254.792 216.251 241.171 216.03 226.946C215.89 217.989 215.387 208.976 216.127 200.078C217.934 178.355 224.144 158.135 237.971 140.694C243.298 133.975 249.456 128.5 257.016 124.763C257.476 119.76 254.879 118.885 250.499 118.877C242.359 118.864 234.481 117.464 227.61 112.394C219.77 106.609 215.442 98.6846 213.538 89.4615C211.047 77.3971 211.188 65.363 216.921 54.0862C222.521 43.0701 231.755 36.0738 244.025 35.8766C289.716 35.1422 335.419 34.9805 381.117 35.0018C388.538 35.0052 396.14 36.3398 403.334 38.2691C414.347 41.2227 420.807 49.0607 423.451 60.1504C426.158 71.5071 425.891 82.6356 420.566 93.1763C414.889 104.415 404.856 109.958 392.87 110.317C364.892 111.156 336.885 111.336 308.893 111.182C299.889 111.133 293.565 115.318 293.959 126.597C293.625 134.695 293.45 142.105 293.398 149.517C293.39 150.661 293.945 151.809 294.239 152.956Z" fill="#67B983"/>
<path d="M1696.86 444.34C1702 436.477 1709.21 432.151 1717.99 430.985C1726.87 429.804 1735.82 429.604 1744.16 434.161C1753.93 439.499 1758.5 448.247 1760.35 458.676C1761.08 462.796 1761.23 467.06 1761.24 471.259C1761.29 526.776 1761.08 582.296 1761.44 637.811C1761.51 648.341 1764.06 658.834 1764.93 669.387C1765.59 677.428 1766.27 685.632 1765.39 693.595C1764.12 705.241 1757.01 713.005 1745.94 716.942C1736.96 720.133 1727.63 721.447 1718.25 720.01C1702.72 717.628 1694.73 707.247 1691.69 692.645C1690.53 687.07 1690.3 681.279 1689.92 675.568C1689.66 671.655 1689.87 667.71 1689.87 663.598C1687.81 663.598 1686.16 663.598 1684.87 663.598C1683.7 670.775 1683.14 678.042 1681.28 684.964C1676.32 703.469 1664.47 715.3 1645.34 718.562C1631.8 720.871 1618.35 720.218 1605.38 714.681C1593.86 709.76 1585.37 701.758 1579.2 690.989C1572.03 678.475 1568.02 664.983 1566.66 650.711C1565.6 639.554 1564.07 628.343 1564.28 617.184C1564.61 599.181 1566.37 581.228 1573.44 564.301C1579.26 550.365 1586.91 537.586 1600.81 530.574C1607.98 526.953 1616.15 524.395 1624.11 523.46C1635.78 522.09 1647.73 522.608 1658.56 528.33C1671 534.9 1679.08 545.341 1683.88 558.39C1685.97 564.074 1687.68 569.897 1689.87 576.602C1689.87 574.343 1689.87 572.949 1689.87 571.556C1689.87 537.424 1689.83 503.291 1689.9 469.159C1689.92 460.402 1691.7 452.027 1696.86 444.34ZM1666.19 637.893C1669.34 637.333 1672.48 636.769 1675.63 636.215C1686.64 634.274 1691.84 627.153 1692.2 616.276C1692.53 606.551 1689.45 598.518 1678.31 595.6C1667.07 592.655 1655.64 592.843 1644.22 595.229C1638.8 596.361 1634.21 598.397 1631.32 603.427C1627.81 609.551 1627.64 616.086 1629.21 622.648C1630.62 628.531 1634.26 632.726 1640.15 634.863C1648.35 637.835 1656.84 638.035 1666.19 637.893Z" fill="#67B983"/>
<path d="M841.313 616.053C829.727 612.506 818.444 609.132 806.711 605.624C806.711 607.72 806.711 609.362 806.711 611.004C806.711 634.372 807.009 657.746 806.518 681.104C806.382 687.602 804.727 694.371 802.339 700.454C797.801 712.012 788.042 717.955 776.232 719.257C767.302 720.242 758.186 720.148 749.347 716.438C738.464 711.871 732.18 703.886 729.504 692.867C728.329 688.03 727.796 682.932 727.743 677.945C727.543 659.394 727.239 640.827 727.794 622.291C728.258 606.83 729.422 591.301 735.018 576.619C741.682 559.133 753.269 545.79 769.629 536.723C769.955 531.711 767.514 530.553 762.792 530.672C753.685 530.902 744.977 528.767 737.935 522.612C731.567 517.045 727.7 509.748 726.045 501.493C723.592 489.265 723.63 477.072 729.498 465.712C735.143 454.783 744.431 447.864 756.725 447.668C800.994 446.964 845.275 446.747 889.55 446.809C898.922 446.823 908.575 447.213 917.301 451.802C927.006 456.905 931.727 465.215 933.419 475.792C935.054 486.014 934.254 495.829 929.616 505.139C924.993 514.417 917.018 519.433 907.159 521.349C901.559 522.437 895.778 523.024 890.072 523.071C866.988 523.259 843.903 523.147 820.818 523.151C812.897 523.153 807.949 527.355 807.652 535.22C807.294 544.682 807.567 554.168 807.567 564.308C818.693 560.819 829.382 557.505 840.045 554.112C854.215 549.604 868.578 546.248 883.587 546.977C893.082 547.438 902.136 549.747 909.484 556.016C915.413 561.075 918.615 568.223 919.418 575.75C920.424 585.183 920.571 594.739 916.113 603.762C911.14 613.825 902.658 618.72 892.24 620.864C876.689 624.062 861.478 621.739 846.434 617.525C844.832 617.076 843.222 616.659 841.313 616.053Z" fill="#67B983"/>
<path d="M1512.87 526.6C1531.19 534.293 1539.47 549.469 1543.48 567.266C1545.64 576.865 1546.77 586.876 1546.92 596.722C1547.35 626.744 1546.89 656.779 1547.15 686.805C1547.27 701.721 1536.27 715.576 1522.64 718.408C1509.57 721.121 1496.6 720.752 1485.62 711.686C1478.7 705.975 1474.18 698.464 1474.06 689.33C1473.78 667.095 1474.25 644.849 1473.81 622.62C1473.67 615.634 1472.46 608.378 1470.16 601.8C1467.28 593.564 1460.99 590.463 1451.7 591.215C1444.05 591.834 1439.09 596.558 1436.71 603.484C1435.16 608.005 1434.19 612.951 1434.14 617.721C1433.87 639.389 1434.17 661.064 1433.93 682.734C1433.86 689.537 1433.21 696.47 1429.66 702.582C1423.56 713.107 1414.5 719.032 1402.19 719.489C1394.18 719.786 1386.13 719.899 1378.9 715.689C1369.32 710.118 1362.96 702.178 1361.8 690.828C1361.29 685.808 1360.97 680.746 1360.96 675.703C1360.89 637.459 1360.84 599.214 1360.99 560.97C1361.02 553.26 1362.63 545.801 1366.72 538.983C1372.22 529.809 1380.6 524.712 1390.73 523.408C1400.33 522.173 1410.11 522.736 1418.63 528.591C1427.81 534.896 1432.06 544.059 1433.09 554.753C1433.89 562.995 1434 571.304 1434.43 579.843C1435.78 579.843 1437.24 579.843 1438.7 579.843C1438.29 528.022 1482.4 515.893 1512.87 526.6Z" fill="#67B983"/>
<path d="M1343.07 654.904C1343.07 664.393 1343.45 673.477 1342.95 682.514C1342.52 690.532 1341.15 698.369 1337.08 705.716C1332.49 714.017 1325.14 718.045 1316.62 719.19C1309.79 720.107 1302.42 719.694 1295.71 718.098C1282.59 714.974 1274.83 705.683 1271.81 692.754C1270.45 686.96 1270.24 680.898 1269.48 674.699C1268.19 674.699 1266.73 674.699 1265.95 674.699C1264.2 681.707 1263.23 688.681 1260.69 695.028C1255.47 708.099 1244.87 715.756 1231.51 718.356C1218.97 720.794 1206.2 720.825 1193.94 715.509C1182.15 710.398 1173.46 702.009 1167.34 691.002C1160.01 677.837 1157.01 663.493 1156.9 648.467C1156.67 617.923 1156.1 587.38 1156.16 556.838C1156.2 539.151 1165.58 526.006 1185.28 523.037C1195.29 521.528 1204.9 522.093 1213.86 526.655C1224.66 532.155 1230.66 541.375 1230.78 553.538C1231.05 580.159 1230.72 606.786 1230.96 633.408C1231.03 640.758 1231.9 648.132 1235.9 654.744C1242.01 664.838 1260.78 665.8 1265.82 655.766C1268.24 650.962 1269.71 645.163 1269.79 639.788C1270.18 612.886 1269.81 585.974 1270.08 559.07C1270.15 552.466 1271.1 545.908 1274.7 539.809C1279.78 531.21 1287.03 525.892 1296.44 523.584C1306.61 521.091 1316.71 521.526 1326.16 526.602C1335.53 531.638 1341.27 539.69 1342.05 550.146C1343.03 563.35 1342.95 576.645 1343.03 589.902C1343.17 611.427 1343.07 632.953 1343.07 654.904Z" fill="#67B983"/>
<path d="M439.256 576.164C443.849 589.187 446.151 602.199 446.473 615.772C446.866 632.356 445.544 648.556 440.387 664.368C436.379 676.66 430.043 687.588 420.933 696.77C409.789 708.003 395.879 714.17 380.721 717.711C366.614 721.006 352.164 721.22 337.894 720.146C319.778 718.783 302.777 713.276 288.109 701.951C276.229 692.777 267.453 681.24 261.874 667.297C256.799 654.615 254.785 641.435 253.991 627.784C253.152 613.336 254.62 599.356 258.545 585.586C261.869 573.925 267.798 563.493 275.528 554.218C286.603 540.931 300.333 531.412 316.969 526.226C330.661 521.958 344.74 520.606 358.904 521.59C373.092 522.576 387.154 524.932 399.936 531.802C417.651 541.325 430.84 555.022 438.149 574.008C438.398 574.655 438.769 575.255 439.256 576.164ZM319.901 596.989C315.939 598.144 311.69 598.732 308.074 600.567C299.481 604.926 296.848 614.903 301.917 622.816C304.95 627.55 309.786 630.1 315.092 630.997C324.009 632.505 333.009 633.914 342.023 634.35C350.851 634.777 359.771 634.295 368.594 633.54C375.331 632.963 382.135 631.889 388.625 630.038C396.399 627.822 400.439 621.512 400.406 613.713C400.377 606.837 396.359 600.976 388.424 599.014C379.572 596.825 370.405 594.956 361.343 594.796C347.757 594.555 334.142 595.925 319.901 596.989Z" fill="#67B983"/>
<path d="M955.525 671.722C949.459 657.577 946.601 643.189 945.915 628.067C945.274 613.939 946.499 600.289 950.252 586.688C953.578 574.632 959.444 563.972 967.25 554.446C978.413 540.823 992.491 531.151 1009.42 525.999C1022.68 521.963 1036.37 520.61 1050.13 521.562C1065.04 522.594 1079.74 525.048 1093.08 532.489C1110 541.918 1122.39 555.278 1129.85 573.349C1135.48 586.975 1137.86 600.996 1138.35 615.671C1139.08 637.037 1136.72 657.717 1127.03 676.993C1115.41 700.082 1096.03 712.689 1071.08 717.912C1057.69 720.715 1044.18 721.098 1030.77 720.168C1006.12 718.458 984.323 709.559 967.835 690.411C963.069 684.875 959.628 678.198 955.525 671.722ZM1049.32 634.504C1057.78 633.618 1066.29 633.066 1074.67 631.725C1080.11 630.855 1085.5 628.938 1088.96 624.112C1096.09 614.138 1092.46 602.422 1080.24 599.055C1070.95 596.496 1061.13 595.312 1051.48 594.741C1041.82 594.17 1032.03 594.757 1022.36 595.529C1015.77 596.054 1009.08 597.156 1002.78 599.099C993.863 601.847 989.39 610.71 992.123 619.19C994.421 626.319 1000.38 629.363 1007.13 631.096C1020.71 634.586 1034.6 634.582 1049.32 634.504Z" fill="#67B983"/>
<path d="M984.87 158.272C991.225 172.927 994.229 187.858 994.612 203.585C995.02 220.318 993.719 236.667 988.485 252.596C984.361 265.145 977.861 276.332 968.338 285.542C956.998 296.509 943.094 302.484 927.857 305.905C914.521 308.898 900.983 309.108 887.555 308.249C862.545 306.65 840.572 297.617 823.797 278.298C813.07 265.944 806.852 251.239 804.178 235.226C802.639 226.01 801.551 216.576 801.671 207.258C801.886 190.414 804.536 173.779 812.708 158.773C826.143 134.1 846.107 117.363 874.239 112.209C884.638 110.304 895.428 109.368 905.981 109.718C926.375 110.396 945.734 115.576 961.928 128.719C971.673 136.627 979.572 146.32 984.87 158.272ZM934.246 186.064C925.424 184.912 916.627 183.159 907.771 182.769C898.083 182.342 888.311 182.813 878.63 183.583C872.034 184.107 865.344 185.204 859.032 187.142C850.107 189.883 845.653 198.727 848.343 207.234C850.558 214.237 856.348 217.603 862.952 219.011C870.693 220.661 878.599 222.09 886.481 222.405C902.463 223.045 918.539 223.069 934.169 219.004C943.317 216.626 949.085 210.433 948.597 201.182C948.233 194.282 944.024 189.473 934.246 186.064Z" fill="#67B983"/>
<path d="M572.958 587.84C572.958 603.13 572.884 618.006 573.023 632.88C573.05 635.75 573.447 638.793 574.481 641.441C577.047 648.014 582.392 648.882 589.697 644.632C594.441 641.872 599.171 638.435 604.357 637.211C621.852 633.084 634.483 640.089 640.321 657.21C645.154 671.386 643.535 684.923 634.175 696.742C625.582 707.591 613.97 714.548 600.57 717.603C591.507 719.669 582.059 721.034 572.789 720.999C554.075 720.929 537.039 715.108 523.477 701.705C513.405 691.751 506.991 679.417 505.125 665.378C503.704 654.689 503.507 643.8 503.331 632.991C503.055 616.149 503.258 599.299 503.258 581.446C488.82 584.874 475.053 585.623 466.11 571.068C461.727 563.934 459.706 555.862 461.009 547.76C464.487 526.135 474.962 515.308 503.513 521.386C503.212 514.781 502.934 508.334 502.621 501.889C501.97 488.483 504.434 473.194 520.566 466.584C533.736 461.188 556.398 461.914 567.131 474.305C570.965 478.73 573.323 483.832 573.645 489.36C574.196 498.818 573.799 508.334 573.736 517.825C573.729 518.875 573.305 519.923 573.043 521.117C580.87 520.341 588.505 519.96 596.01 518.766C614.503 515.823 629.538 526.127 633.242 543.431C636.444 558.389 631.952 570.956 619.319 579.727C615.52 582.365 610.242 584.096 605.641 584.098C596.035 584.1 586.43 582.664 576.822 581.847C575.713 581.753 574.589 581.834 572.958 581.834C572.958 583.829 572.958 585.627 572.958 587.84Z" fill="#67B983"/>
<path d="M593.605 116.178C604.07 123.138 608.785 132.905 610.546 144.836C612.096 155.341 610.613 165.169 606.036 174.473C599.009 188.759 584.014 195.697 568.823 193.196C561.1 191.925 554.214 189.671 548.512 184.404C545.891 181.981 543.574 179.166 541.458 176.28C539.671 173.842 537.674 172.408 534.571 172.531C523.71 172.963 517.863 176.433 517.8 189.057C517.662 216.528 517.836 244 517.712 271.471C517.671 280.423 515.462 288.698 509.684 295.998C504.5 302.548 497.623 306.334 489.905 307.288C480.236 308.482 470.141 309.037 461.087 303.957C451.114 298.36 444.907 289.936 443.857 278.328C443.276 271.897 443.009 265.418 442.996 258.959C442.917 222.283 442.858 185.607 443.033 148.932C443.073 140.632 444.8 132.577 449.921 125.622C456.776 116.312 466.105 111.896 477.486 111.338C486.767 110.882 495.571 112.142 503.383 117.73C511.371 123.443 515.344 131.483 516.848 140.864C517.598 145.541 517.738 150.315 518.176 155.299C519.827 155.299 521.573 155.299 523.307 155.299C527.122 118.183 563.727 100.371 593.605 116.178Z" fill="#67B983"/>
<path d="M1180.76 154.507C1179.54 164.512 1177.42 173.63 1170.89 181.444C1165.87 187.443 1159.78 191.176 1152.44 192.838C1142.57 195.072 1133.05 193.6 1124.09 188.758C1118.7 185.844 1114.13 182.021 1111.09 176.666C1109.27 173.452 1106.71 172.271 1103.21 172.544C1093.11 173.333 1087.45 176.231 1087.34 188.655C1087.1 216.269 1087.32 243.886 1087.23 271.501C1087.2 280.487 1084.85 288.71 1079.16 296.022C1074.02 302.63 1067.08 306.338 1059.37 307.296C1049.71 308.498 1039.61 309.021 1030.56 303.937C1020.58 298.333 1014.42 289.889 1013.36 278.284C1012.8 272.134 1012.52 265.938 1012.5 259.762C1012.43 222.8 1012.38 185.838 1012.54 148.876C1012.57 141.313 1014.04 133.898 1018.2 127.31C1024.08 117.996 1032.83 112.772 1043.46 111.56C1053.84 110.376 1064.13 111.258 1073.11 117.884C1080.9 123.624 1084.81 131.514 1086.35 140.714C1087.13 145.391 1087.23 150.183 1087.66 155.241C1089.23 155.241 1090.97 155.241 1092.91 155.241C1094.05 145.8 1096.92 137.028 1102.59 129.127C1112.37 115.489 1131.71 107.975 1148.21 111.126C1155.38 112.497 1161.78 114.675 1167.39 119.498C1174.86 125.932 1178.51 134.194 1179.88 143.66C1180.38 147.115 1180.48 150.628 1180.76 154.507Z" fill="#67B983"/>
<path d="M631.024 124.328C637.97 115.82 646.857 111.936 657.338 111.353C666.752 110.83 675.71 112.084 683.65 117.779C691.64 123.511 695.571 131.566 697.053 140.952C697.792 145.628 697.944 150.396 698.381 155.335C699.986 155.335 701.629 155.335 702.704 155.335C704.885 148.66 706.166 141.688 709.308 135.691C718.796 117.584 737.975 107.694 759.158 111.147C772.791 113.369 782.371 120.306 787.592 132.754C790.934 140.724 792.084 149.155 790.863 158.078C789.672 166.776 787.052 174.405 781.608 181.349C776.671 187.646 770.314 191.232 762.796 192.878C752.889 195.048 743.108 193.883 734.568 188.489C729.662 185.391 725.692 180.661 721.725 176.282C719.612 173.95 717.641 172.35 714.398 172.53C703.825 173.115 698.08 176.429 698.008 189.015C697.852 216.635 698.068 244.257 697.896 271.877C697.842 280.653 695.537 288.793 689.902 295.97C684.742 302.542 677.85 306.317 670.132 307.28C660.461 308.487 650.361 309.037 641.306 303.963C631.331 298.374 625.1 289.954 624.061 278.337C623.474 271.763 623.213 265.14 623.198 258.538C623.118 222.56 623.116 186.583 623.19 150.605C623.209 141.236 624.956 132.268 631.024 124.328Z" fill="#67B983"/>
<path d="M294.226 152.559C293.945 151.809 293.39 150.661 293.398 149.516C293.45 142.105 293.625 134.695 293.903 126.966C294.102 135.153 294.157 143.658 294.226 152.559Z" fill="#669966"/>
<g clip-path="url(#clip0_444_1064)">
<path d="M1465.61 345.674C1466.66 345.078 1467.3 344.179 1468.14 343.932C1475.91 341.643 1483.64 339.154 1491.52 337.359C1497.3 336.043 1503.29 335.643 1509.19 334.901C1517.64 333.84 1526.28 333.969 1533.88 328.915C1543.5 322.506 1549.21 313.952 1550.91 302.416C1552.71 290.25 1548.45 280.283 1540.43 271.752C1535.46 266.46 1529.02 263.18 1521.72 262.16C1516.39 261.416 1513.8 258.324 1512.41 253.362C1508.31 238.747 1498.73 230.022 1483.78 227.041C1463.41 222.981 1444.25 237.663 1441.74 256.325C1441.17 260.53 1441.35 264.901 1441.72 269.148C1442.16 274.093 1439.76 277.196 1435.95 279.487C1418.91 289.715 1415.11 314.68 1426.19 330.189C1431.28 337.299 1437.82 342.428 1446.53 344.421C1446.9 344.507 1447.19 344.982 1447.29 345.474C1453.14 345.674 1459.22 345.674 1465.61 345.674Z" fill="#69B783"/>
<path d="M1294.41 0.673828C1293.62 1.26038 1293.26 2.05606 1292.64 2.40237C1281.84 8.47537 1275.48 18.3482 1272.88 29.7297C1269.86 42.9367 1277.83 54.6462 1291.58 56.6839C1303.94 58.5166 1314.39 50.1785 1316.05 41.3963C1318.62 27.7255 1317.31 14.5495 1307.4 3.55897C1306.53 2.59252 1305.42 1.8372 1304.65 0.828823C1301.5 0.673822 1298.11 0.673822 1294.41 0.673828Z" fill="#69B783"/>
<path d="M1277.04 96.1867C1276.24 98.1396 1275.37 99.839 1275.01 101.641C1273.83 107.464 1270.32 110.28 1264.5 111.204C1252.97 113.037 1244.9 119.971 1239.6 130C1233.28 141.965 1234.02 154.178 1240.95 165.506C1247.04 175.443 1256.03 181.692 1268.14 182.629C1284.52 183.897 1300.61 186.537 1316.04 192.536C1324.8 195.94 1333.88 196.609 1342.84 193.282C1354.03 189.127 1364.3 178.75 1366.29 165.409C1367.6 156.635 1366.9 148.261 1362.01 140.942C1358.82 136.162 1354.54 131.947 1350.15 128.171C1346.03 124.625 1345.19 123.26 1345.89 117.867C1347.46 105.812 1344.65 94.5856 1335.91 86.1658C1322.05 72.8134 1301.91 71.3832 1286.36 84.09C1282.28 87.4179 1279.37 91.3348 1277.04 96.1867Z" fill="#69B783"/>
<path d="M1371.78 62.1423C1377.1 56.045 1378.28 48.8439 1377.48 41.5007C1376.87 35.9094 1375.46 30.2602 1373.44 25.0081C1371.36 19.6113 1368.41 14.39 1361.71 13.2424C1356.58 12.3649 1352.45 14.69 1348.9 17.7537C1341.09 24.5075 1335.21 32.589 1332.91 42.9687C1330.35 54.5756 1338.75 68.3174 1352.11 69.4787C1359.9 70.1549 1366.29 67.9253 1371.78 62.1423Z" fill="#69B783"/>
<path d="M1497.79 154.766C1490.83 149.756 1482.65 150.207 1477.69 158.251C1474.1 164.08 1472.34 170.348 1471.22 177.022C1470.22 182.978 1470.57 188.673 1472.68 194.232C1475.46 201.552 1480.92 205.866 1488.51 207.535C1499.65 209.984 1509.59 204.305 1514.01 194.659C1516.5 189.242 1516.54 183.325 1514.42 177.599C1511.06 168.515 1505.81 160.779 1497.79 154.766Z" fill="#69B783"/>
<path d="M1415.53 212.051C1420.07 217.196 1425.73 220.088 1432.17 220.215C1443.33 220.435 1453.89 213.118 1455.14 200.211C1456.09 190.396 1451.87 182.381 1445.91 175.186C1443.21 171.921 1439.91 169.088 1436.6 166.397C1430.12 161.121 1421.34 163.371 1417.26 170.27C1413.14 177.24 1411.08 184.728 1410.66 192.755C1410.3 199.615 1410.74 206.25 1415.53 212.051Z" fill="#69B783"/>
<path d="M1419.44 266.099C1425.94 255.174 1421.63 243.811 1412.69 237.167C1407.12 233.028 1401.34 229.345 1394.59 227.494C1389.36 226.06 1384.06 225.098 1379.91 229.929C1376.97 233.347 1376.76 237.694 1377.07 241.835C1377.63 249.31 1379.78 256.411 1383.15 263.162C1387.37 271.626 1394.09 275.997 1403.52 275.527C1410.22 275.192 1415.67 272.121 1419.44 266.099Z" fill="#69B783"/>
<path d="M1261.09 64.0569C1256.79 56.2575 1252.03 49.1866 1244.5 44.3955C1240.34 41.7456 1232.95 41.0462 1229.07 47.0077C1225.84 51.955 1224.06 57.4206 1223.67 63.0112C1223.09 71.2902 1221.87 79.8274 1227.31 87.4322C1234.09 96.9239 1247.93 98.1317 1256.56 91.2538C1264.57 84.866 1265.86 72.7089 1261.09 64.0569Z" fill="#69B783"/>
<path d="M1531.77 207.335C1526.9 213.936 1523.33 220.62 1523.8 229.058C1524.42 240.192 1536.12 249.297 1547.38 247.031C1559.09 244.675 1564.4 235.918 1564.32 225.273C1564.28 218.854 1564.71 212.379 1562.25 206.26C1561.07 203.331 1559.9 200.284 1558.08 197.757C1555.14 193.69 1550.34 192.895 1545.28 195.239C1539.65 197.848 1535.55 202.251 1531.77 207.335Z" fill="#69B783"/>
<path d="M1387.54 125.332C1395.36 124.282 1400.41 119.832 1403.87 113.409C1408.29 105.208 1410.72 96.512 1410.01 87.0738C1409.44 79.413 1405.62 76.0402 1398.18 76.763C1386.28 77.9195 1376.71 83.7341 1369.3 92.483C1360.48 102.902 1364.53 119.209 1377.85 123.949C1380.77 124.988 1384.1 124.9 1387.54 125.332Z" fill="#69B783"/>
</g>
<defs>
<clipPath id="clip0_444_1064">
<rect width="345" height="345" fill="white" transform="matrix(-1 0 0 1 1567 0)"/>
</clipPath>
</defs>
</svg>
