<svg width="23" height="23" viewBox="0 0 20 20" fill="none" xmlns="http://www.w3.org/2000/svg">
<path d="M10.002 19C11.965 18.9996 13.8739 18.3574 15.438 17.1713C17.0021 15.9853 18.1356 14.3204 18.6656 12.4304C19.1957 10.5404 19.0934 8.52892 18.3742 6.70249C17.655 4.87606 16.3584 3.33484 14.6819 2.31369C13.0055 1.29254 11.0412 0.847472 9.08839 1.0463C7.13556 1.24513 5.30127 2.07695 3.86505 3.41501C2.42884 4.75306 1.46946 6.52398 1.13312 8.45788C0.796771 10.3918 1.10191 12.3826 2.00202 14.127L1.00202 19L5.87502 18C7.11102 18.639 8.51502 19 10.002 19Z" stroke="stroke" stroke-width="1.5" stroke-linecap="round" stroke-linejoin="round"/>
<path d="M5.50201 10H5.51201V10.01H5.50201V10ZM10.002 10H10.012V10.01H10.002V10ZM14.502 10H14.512V10.01H14.502V10Z" stroke="stroke" stroke-width="2.25" stroke-linejoin="round"/>
</svg>
