<svg width="24" height="24" viewBox="0 0 24 24" fill="none" xmlns="http://www.w3.org/2000/svg">
<path d="M5.0625 8.61195C5.0625 8.9157 5.31 9.17445 5.625 9.17445C5.94 9.17445 6.1875 8.9157 6.1875 8.61195V7.9707C6.1875 7.6557 5.94 7.4082 5.625 7.4082C5.31 7.4082 5.0625 7.6557 5.0625 7.9707V8.61195Z" fill="black"/>
<path d="M18.465 3.75001C17.4565 3.72799 16.4748 4.07589 15.7052 4.72805C14.9355 5.38022 14.4313 6.29153 14.2875 7.29001C14.2725 7.40251 14.3625 7.50001 14.475 7.50001H14.67C15.24 7.50001 15.78 7.18501 16.0425 6.67501C16.4925 5.79001 17.43 5.19751 18.5025 5.25001C19.8375 5.31001 20.925 6.39001 21 7.73251C21.0199 8.11131 20.9575 8.48993 20.8172 8.84234C20.6768 9.19475 20.4619 9.51259 20.187 9.77401C19.7877 9.25403 19.2638 8.84305 18.6637 8.57905C18.0636 8.31504 17.4066 8.20652 16.7535 8.26351L11.6385 8.89351H11.634C11.5244 8.91312 11.4115 8.90434 11.3063 8.86801C11.233 8.83796 11.1678 8.79122 11.1158 8.73151C11.07 8.68112 11.0293 8.62635 10.9943 8.56801L10.9973 8.55601L11.4915 6.58951V6.58876C11.5539 6.34116 11.559 6.08258 11.5064 5.83272C11.4538 5.58285 11.3449 5.34828 11.1879 5.14686C11.031 4.94544 10.8302 4.78248 10.6007 4.67039C10.3713 4.55829 10.1193 4.50002 9.864 4.50001H6.765C5.95125 4.50083 5.16107 4.77332 4.51978 5.27426C3.87849 5.7752 3.4228 6.47591 3.225 7.26526L3.1665 7.50001H2.07C1.71992 7.50001 1.38417 7.63908 1.13662 7.88663C0.889076 8.13418 0.750005 8.46992 0.750005 8.82001V9.00001C0.749201 9.45075 0.850232 9.89586 1.04555 10.3021C1.24088 10.7083 1.52544 11.0652 1.878 11.346C1.87589 11.3735 1.87489 11.401 1.875 11.4285V11.8125C1.875 12.327 2.298 12.75 2.8125 12.75C3.2625 12.75 3.6435 12.426 3.73125 12H4.5V12.8925C4.5 14.2118 4.94925 15.4815 5.76225 16.5C5.02744 16.5042 4.3242 16.7993 3.8065 17.3208C3.28879 17.8423 2.9988 18.5477 3 19.2825V19.785C3 20.4623 3.5535 21 4.2225 21H5.535C6.03975 21 6.474 20.6895 6.657 20.25H6.8775C7.58318 20.2518 8.26471 19.9932 8.79146 19.5236C9.31821 19.054 9.65313 18.4065 9.732 17.7053L10.5 22.305C10.5225 22.4175 10.62 22.5 10.7325 22.5H12.5625C12.675 22.5 12.765 22.395 12.75 22.2825L11.9063 17.25H14.13C14.2988 17.25 14.4668 17.241 14.6325 17.223L13.5 22.2675C13.47 22.3875 13.56 22.4925 13.68 22.4925H15.51C15.6225 22.4925 15.7125 22.4175 15.735 22.3125L16.5023 18.9825C16.7175 19.1483 16.9628 19.29 17.2418 19.4018H17.2433L18.7575 20.0078V21.5175C18.7575 22.059 19.1985 22.5 19.74 22.5H21.525C22.0665 22.5 22.5075 22.059 22.5075 21.5175V17.865C22.5021 17.5521 22.4216 17.245 22.2728 16.9696C22.124 16.6942 21.9113 16.4586 21.6525 16.2825L21 15.8483V12.165C21 11.8178 20.955 11.481 20.8703 11.1608C21.394 10.7645 21.8152 10.2486 22.0987 9.65623C22.3823 9.06385 22.5199 8.4122 22.5 7.75576C22.44 5.57326 20.6475 3.79501 18.465 3.75001ZM4.68 7.62901C4.78599 7.20732 5.01707 6.82756 5.34288 6.53963C5.66869 6.25171 6.07398 6.06908 6.5055 6.01576L6.97725 8.53801L6.98325 8.56051C7.0633 8.87573 7.21635 9.1677 7.43006 9.41285C7.64378 9.65799 7.91215 9.84944 8.21351 9.97172C8.51486 10.094 8.84076 10.1437 9.16486 10.1168C9.48897 10.0898 9.8022 9.98708 10.0793 9.81676C10.4753 10.2113 11.0528 10.4805 11.8238 10.3815H11.826L16.9185 9.75376C17.2491 9.73069 17.5809 9.77595 17.8932 9.88673C18.2056 9.9975 18.4918 10.1714 18.734 10.3976C18.9761 10.6238 19.1691 10.8975 19.3009 11.2016C19.4327 11.5057 19.5005 11.8336 19.5 12.165V16.125C19.5 16.4625 19.674 16.7723 19.9448 16.9478L20.8133 17.5268L20.8148 17.5275C20.8728 17.5686 20.9204 17.6227 20.9539 17.6855C20.9873 17.7482 21.0057 17.8179 21.0075 17.889V21H20.2575V19.6575C20.2575 19.23 19.9898 18.891 19.6463 18.7478L19.6358 18.7433L17.7983 18.0083H17.7968C17.1248 17.7413 16.7483 17.0738 16.5 16.0523V16.0245C16.5 15.0495 15.825 14.133 14.85 14.133H8.25V17.3775C8.251 17.558 8.21618 17.7369 8.14755 17.9039C8.07893 18.0709 7.97787 18.2226 7.85023 18.3502C7.72258 18.4779 7.57088 18.5789 7.40391 18.6476C7.23694 18.7162 7.05802 18.751 6.8775 18.75H6C5.80109 18.75 5.61033 18.829 5.46967 18.9697C5.32902 19.1103 5.25 19.3011 5.25 19.5H4.5V19.2825C4.5 18.57 5.07375 18 5.775 18H6.75C6.94892 18 7.13968 17.921 7.28033 17.7803C7.42099 17.6397 7.5 17.4489 7.5 17.25V16.4775C7.50009 16.378 7.48037 16.2795 7.442 16.1877C7.40362 16.0959 7.34737 16.0126 7.2765 15.9428C6.87192 15.5445 6.55068 15.0697 6.33152 14.546C6.11236 14.0223 5.99967 13.4602 6 12.8925V11.4825C6 10.941 5.559 10.5 5.0175 10.5H3.75C3.44585 10.5006 3.14872 10.4086 2.89817 10.2362C2.64762 10.0637 2.45554 9.81908 2.3475 9.53476C2.43 9.58201 2.5245 9.60976 2.625 9.60976H3C3.08127 9.60909 3.16143 9.59094 3.23506 9.55654C3.30868 9.52215 3.37404 9.4723 3.42669 9.4104C3.47934 9.3485 3.51805 9.27599 3.54019 9.1978C3.56233 9.11961 3.56739 9.03757 3.555 8.95726C3.81163 8.89416 4.04602 8.76184 4.23262 8.5747C4.41922 8.38757 4.55088 8.15281 4.61325 7.89601L4.68075 7.62901H4.68ZM15.4275 15.4628C15.0217 15.6537 14.5785 15.7518 14.13 15.75H9V14.883H14.85C15.1395 14.883 15.4358 15.0765 15.606 15.4043C15.5443 15.4162 15.4843 15.4359 15.4275 15.4628ZM8.028 6.00001H9.86475C9.98025 6.00001 10.065 6.11101 10.0373 6.22051V6.22201L9.5415 8.19451L9.53925 8.20201C9.50856 8.32408 9.4376 8.43223 9.33784 8.50898C9.23809 8.58574 9.11536 8.62662 8.9895 8.62501C8.86572 8.62419 8.74551 8.58336 8.64684 8.50861C8.54816 8.43386 8.47631 8.3292 8.442 8.21026L8.028 6.00001Z" fill="black"/>
</svg>
