<svg width="23" height="23" viewBox="0 0 22 17" fill="none" xmlns="http://www.w3.org/2000/svg">
<path d="M1 12.25L6.159 7.091C6.36793 6.88206 6.61597 6.71633 6.88896 6.60325C7.16194 6.49018 7.45452 6.43198 7.75 6.43198C8.04548 6.43198 8.33806 6.49018 8.61104 6.60325C8.88403 6.71633 9.13207 6.88206 9.341 7.091L14.5 12.25M13 10.75L14.409 9.341C14.6179 9.13206 14.866 8.96633 15.139 8.85325C15.4119 8.74018 15.7045 8.68198 16 8.68198C16.2955 8.68198 16.5881 8.74018 16.861 8.85325C17.134 8.96633 17.3821 9.13206 17.591 9.341L20.5 12.25M2.5 16H19C19.3978 16 19.7794 15.842 20.0607 15.5607C20.342 15.2794 20.5 14.8978 20.5 14.5V2.5C20.5 2.10218 20.342 1.72064 20.0607 1.43934C19.7794 1.15804 19.3978 1 19 1H2.5C2.10218 1 1.72064 1.15804 1.43934 1.43934C1.15804 1.72064 1 2.10218 1 2.5V14.5C1 14.8978 1.15804 15.2794 1.43934 15.5607C1.72064 15.842 2.10218 16 2.5 16ZM13 4.75H13.008V4.758H13V4.75ZM13.375 4.75C13.375 4.84946 13.3355 4.94484 13.2652 5.01517C13.1948 5.08549 13.0995 5.125 13 5.125C12.9005 5.125 12.8052 5.08549 12.7348 5.01517C12.6645 4.94484 12.625 4.84946 12.625 4.75C12.625 4.65054 12.6645 4.55516 12.7348 4.48484C12.8052 4.41451 12.9005 4.375 13 4.375C13.0995 4.375 13.1948 4.41451 13.2652 4.48484C13.3355 4.55516 13.375 4.65054 13.375 4.75Z" stroke="stroke" stroke-width="1.5" stroke-linecap="round" stroke-linejoin="round"/>
</svg>
