<svg width="18" height="18" viewBox="0 0 10 11" fill="none" xmlns="http://www.w3.org/2000/svg">
<path d="M6.48594 0.715978C5.50804 0.488745 4.49105 0.488745 3.51314 0.715978C2.94834 0.369578 2.51714 0.210378 2.20354 0.143178C2.0697 0.11297 1.93274 0.0987375 1.79554 0.100778C1.73311 0.10247 1.67098 0.109969 1.60994 0.123178L1.60194 0.124778L1.59874 0.126378H1.59634L1.70594 0.511178L1.59634 0.127178C1.54014 0.143061 1.4881 0.171058 1.44387 0.209204C1.39964 0.247349 1.36431 0.294716 1.34034 0.347978C1.10432 0.876544 1.05936 1.47071 1.21314 2.02878C0.814851 2.51146 0.597801 3.11818 0.599542 3.74398C0.599542 4.98638 0.965942 5.82158 1.59074 6.35838C2.02834 6.73438 2.55954 6.93438 3.09234 7.04878C3.0085 7.29502 2.97689 7.55604 2.99954 7.81518V8.29358C2.67394 8.36158 2.44834 8.33998 2.28754 8.28718C2.08674 8.22078 1.93234 8.08718 1.78434 7.89518C1.70697 7.79168 1.63488 7.68435 1.56834 7.57358L1.52274 7.49918C1.46516 7.40343 1.40541 7.30901 1.34354 7.21598C1.19154 6.99118 0.965942 6.70958 0.601142 6.61358L0.213942 6.51198L0.0107422 7.28638L0.397942 7.38798C0.461942 7.40398 0.545142 7.46398 0.681942 7.66478C0.734597 7.74404 0.785279 7.8246 0.833942 7.90638L0.888342 7.99438C0.963542 8.11598 1.04994 8.25038 1.14994 8.38158C1.35234 8.64558 1.62834 8.91198 2.03794 9.04718C2.31794 9.13998 2.63634 9.16238 2.99954 9.10638V10.6C2.99954 10.7061 3.04168 10.8078 3.1167 10.8828C3.19171 10.9578 3.29346 11 3.39954 11H6.59954C6.70563 11 6.80737 10.9578 6.88238 10.8828C6.9574 10.8078 6.99954 10.7061 6.99954 10.6V7.74958C6.99954 7.49758 6.98834 7.26638 6.91714 7.05118C7.44754 6.93918 7.97474 6.73918 8.40994 6.36318C9.03394 5.82238 9.39954 4.97918 9.39954 3.72958V3.72878C9.39753 3.10811 9.1804 2.50733 8.78514 2.02878C8.93874 1.47096 8.89377 0.87711 8.65794 0.348778C8.63416 0.295453 8.59898 0.247983 8.5549 0.2097C8.51081 0.171417 8.45887 0.14325 8.40274 0.127178L8.29314 0.511178C8.40274 0.127178 8.40194 0.127178 8.40114 0.127178L8.39954 0.126378L8.39634 0.124778L8.38914 0.123178C8.36939 0.11804 8.34935 0.114034 8.32914 0.111178C8.28727 0.105064 8.24505 0.10159 8.20274 0.100778C8.06554 0.0987525 7.92859 0.112985 7.79474 0.143178C7.48194 0.210378 7.05074 0.369578 6.48594 0.715978Z" fill="#D4D4D8"/>
</svg>
