<svg width="22" height="20" viewBox="0 0 22 20" fill="none" xmlns="http://www.w3.org/2000/svg">
<path d="M11 0C16.8 0 21.501 3.664 21.501 8.185C21.501 12.705 16.8 16.369 11.001 16.369C10.4236 16.3693 9.8467 16.3325 9.27398 16.259L4.86598 19.142C4.36498 19.407 4.18798 19.378 4.39398 18.729L5.28598 15.051C2.40598 13.591 0.500977 11.061 0.500977 8.185C0.500977 3.665 5.20098 0 11.001 0H11ZM16.908 8.06L18.378 6.636C18.4628 6.54791 18.5101 6.43033 18.51 6.30804C18.5098 6.18575 18.4622 6.0683 18.3772 5.98041C18.2922 5.89252 18.1763 5.84107 18.0541 5.83689C17.9319 5.83271 17.8128 5.87613 17.722 5.958L15.794 7.824V6.282C15.794 6.15682 15.7442 6.03676 15.6557 5.94825C15.5672 5.85973 15.4472 5.81 15.322 5.81C15.1968 5.81 15.0767 5.85973 14.9882 5.94825C14.8997 6.03676 14.85 6.15682 14.85 6.282V8.839C14.8323 8.91195 14.8323 8.98805 14.85 9.061V10.5C14.85 10.6252 14.8997 10.7452 14.9882 10.8338C15.0767 10.9223 15.1968 10.972 15.322 10.972C15.4472 10.972 15.5672 10.9223 15.6557 10.8338C15.7442 10.7452 15.794 10.6252 15.794 10.5V9.137L16.221 8.724L17.649 10.757C17.6846 10.8078 17.7299 10.851 17.7823 10.8842C17.8347 10.9175 17.8931 10.9401 17.9542 10.9508C18.0153 10.9615 18.0779 10.96 18.1384 10.9465C18.1989 10.933 18.2562 10.9077 18.307 10.872C18.3577 10.8363 18.401 10.791 18.4342 10.7387C18.4675 10.6863 18.4901 10.6279 18.5008 10.5668C18.5114 10.5057 18.51 10.4431 18.4965 10.3826C18.4829 10.322 18.4576 10.2648 18.422 10.214L16.908 8.059V8.06ZM13.95 9.984H12.49V6.297C12.4844 6.17571 12.4323 6.06123 12.3445 5.97737C12.2566 5.89351 12.1399 5.84672 12.0185 5.84672C11.8971 5.84672 11.7803 5.89351 11.6925 5.97737C11.6047 6.06123 11.5526 6.17571 11.547 6.297V10.456C11.547 10.716 11.757 10.928 12.018 10.928H13.95C14.0752 10.928 14.1952 10.8783 14.2837 10.7898C14.3722 10.7012 14.422 10.5812 14.422 10.456C14.422 10.3308 14.3722 10.2108 14.2837 10.1222C14.1952 10.0337 14.0752 9.984 13.95 9.984ZM8.09298 8.893L8.78898 7.185L9.42698 8.892L8.09298 8.893ZM10.616 9.38L10.618 9.364C10.6177 9.24509 10.5723 9.13071 10.491 9.044L9.44498 6.244C9.40113 6.11057 9.31761 5.99369 9.20557 5.90899C9.09353 5.8243 8.95831 5.7758 8.81798 5.77C8.67662 5.76938 8.53842 5.81182 8.42177 5.89167C8.30512 5.97152 8.21555 6.08499 8.16498 6.217L6.50298 10.292C6.45564 10.4079 6.45627 10.5379 6.50475 10.6533C6.55323 10.7687 6.64558 10.8602 6.76148 10.9075C6.87738 10.9548 7.00734 10.9542 7.12276 10.9057C7.23819 10.8572 7.32964 10.7649 7.37698 10.649L7.70898 9.836H9.77898L10.077 10.636C10.0973 10.6958 10.1294 10.7509 10.1714 10.7981C10.2135 10.8452 10.2645 10.8835 10.3216 10.9105C10.3786 10.9376 10.4406 10.9529 10.5037 10.9557C10.5668 10.9584 10.6298 10.9484 10.6889 10.9263C10.7481 10.9042 10.8022 10.8704 10.8481 10.8271C10.894 10.7837 10.9307 10.7315 10.9561 10.6737C10.9815 10.6158 10.995 10.5535 10.9958 10.4903C10.9967 10.4272 10.9848 10.3645 10.961 10.306L10.616 9.38ZM7.29398 6.302C7.29398 6.17699 7.24439 6.05709 7.15608 5.9686C7.06778 5.88011 6.94799 5.83026 6.82298 5.83H3.57798C3.45279 5.83 3.33274 5.87973 3.24422 5.96825C3.1557 6.05676 3.10598 6.17682 3.10598 6.302C3.10598 6.42718 3.1557 6.54724 3.24422 6.63575C3.33274 6.72427 3.45279 6.774 3.57798 6.774H4.73798V10.51C4.73798 10.6352 4.7877 10.7552 4.87622 10.8438C4.96474 10.9323 5.08479 10.982 5.20998 10.982C5.33516 10.982 5.45521 10.9323 5.54373 10.8438C5.63225 10.7552 5.68198 10.6352 5.68198 10.51V6.774H6.82198C6.94716 6.774 7.06721 6.72427 7.15573 6.63575C7.24425 6.54724 7.29398 6.42718 7.29398 6.302Z" fill="black"/>
</svg>
