<svg width="26" height="24" viewBox="0 0 26 24" fill="none" xmlns="http://www.w3.org/2000/svg">
<path d="M13.7043 17.4713C13.8537 17.6119 13.9376 17.8026 13.9376 18.0014C13.9376 18.2002 13.8537 18.3909 13.7043 18.5316L12.7139 19.4691C11.6666 20.4539 10.2463 21.007 8.76551 21.0065C7.28475 21.0061 5.86483 20.4522 4.81811 19.4667C3.77139 18.4812 3.18362 17.1449 3.18408 15.7516C3.18455 14.3584 3.77322 13.0224 4.82061 12.0375L7.22388 9.77626C8.22991 8.82892 9.58267 8.27914 11.0054 8.2394C12.428 8.19967 13.8131 8.67299 14.8771 9.56251C14.9556 9.62801 15.0196 9.70741 15.0655 9.79619C15.1114 9.88497 15.1383 9.98139 15.1445 10.0799C15.1508 10.1785 15.1364 10.2772 15.1022 10.3705C15.0679 10.4638 15.0144 10.5499 14.9448 10.6238C14.8752 10.6976 14.7908 10.7579 14.6965 10.8011C14.6021 10.8442 14.4996 10.8695 14.3949 10.8754C14.2902 10.8813 14.1852 10.8678 14.0861 10.8356C13.9869 10.8033 13.8954 10.753 13.8169 10.6875C13.057 10.0525 12.068 9.71473 11.0521 9.74313C10.0362 9.77153 9.07029 10.164 8.35178 10.8403L5.94851 13.0988C5.20093 13.8022 4.78094 14.7562 4.78094 15.7509C4.78094 16.7457 5.20093 17.6997 5.94851 18.4031C6.69609 19.1065 7.71003 19.5017 8.76727 19.5017C9.82451 19.5017 10.8384 19.1065 11.586 18.4031L12.5764 17.4713C12.6505 17.4015 12.7384 17.3462 12.8351 17.3085C12.9319 17.2707 13.0356 17.2513 13.1404 17.2513C13.2451 17.2513 13.3489 17.2707 13.4456 17.3085C13.5424 17.3462 13.6303 17.4015 13.7043 17.4713ZM20.687 4.53376C19.6394 3.55034 18.2201 2.99805 16.7403 2.99805C15.2605 2.99805 13.8412 3.55034 12.7936 4.53376L11.8032 5.46657C11.6538 5.6073 11.5699 5.79813 11.57 5.99706C11.5701 6.196 11.6542 6.38675 11.8037 6.52736C11.9533 6.66796 12.1561 6.7469 12.3675 6.74682C12.579 6.74673 12.7817 6.66762 12.9311 6.52689L13.9215 5.59501C14.6691 4.89161 15.6831 4.49644 16.7403 4.49644C17.7975 4.49644 18.8115 4.89161 19.5591 5.59501C20.3066 6.29842 20.7266 7.25244 20.7266 8.2472C20.7266 9.24196 20.3066 10.196 19.5591 10.8994L17.1558 13.1625C16.4369 13.8384 15.4707 14.2304 14.4549 14.2583C13.439 14.2862 12.4502 13.9478 11.6906 13.3125C11.5321 13.1802 11.3242 13.1126 11.1127 13.1246C10.9011 13.1365 10.7033 13.2271 10.5627 13.3763C10.4222 13.5254 10.3503 13.7211 10.363 13.9201C10.3757 14.1191 10.4719 14.3052 10.6305 14.4375C11.6942 15.3273 13.0791 15.8009 14.5018 15.7615C15.9245 15.7222 17.2774 15.1727 18.2837 14.2256L20.687 11.9644C21.7328 10.9787 22.3201 9.6428 22.3201 8.25001C22.3201 6.85722 21.7328 5.52134 20.687 4.53564V4.53376Z" fill="black"/>
</svg>
