<svg width="2050" height="432" viewBox="0 0 2050 432" fill="none" xmlns="http://www.w3.org/2000/svg">
<path d="M1406.84 306.643C1374.57 297.148 1356.53 275.112 1350.3 243.353C1347.82 230.669 1347.06 217.43 1347.31 204.477C1347.64 186.601 1350.37 168.827 1358.49 152.561C1370.59 128.316 1390.24 114.665 1417.29 111.172C1435.59 108.807 1452.22 111.797 1467 123.276C1479.74 133.171 1486.48 146.358 1489.06 162.148C1489.06 156.93 1488.88 151.704 1489.09 146.494C1489.93 125.693 1503.83 109.651 1526.17 109.271C1536.11 109.103 1545.99 109.311 1554.95 114.308C1565.92 120.428 1572.63 130.304 1572.82 142.433C1573.7 196.522 1574.37 250.632 1573.78 304.719C1573.49 330.477 1568.84 355.974 1556.85 379.29C1546.52 399.383 1530.86 414.075 1509.53 422.295C1497.53 426.917 1485.14 429.341 1472.29 430.427C1447.22 432.545 1422.51 431.801 1398.93 422.212C1381.32 415.051 1364.56 406.346 1355.4 388.149C1346.04 369.571 1346.98 354.006 1358.84 337.002C1363.86 329.808 1370.24 324.398 1378.55 321.266C1390.84 316.635 1402.51 318.838 1414.14 323.778C1423.75 327.862 1433.3 332.278 1443.26 335.29C1465.42 341.989 1487.58 328.831 1491.98 306.114C1492.6 302.905 1492.98 299.6 1493.01 296.334C1493.13 284.193 1493.06 272.05 1493.06 259.809C1488.74 258.571 1486.76 259.295 1485.84 264.142C1483.67 275.545 1479.06 285.861 1470.62 294.347C1462.74 302.277 1453.14 306.283 1442.48 308.262C1430.63 310.461 1418.86 309.573 1406.84 306.643ZM1427.14 190.947C1418.89 202.834 1421.6 222.877 1440.97 226.37C1452.03 228.366 1462.94 227.956 1473.89 225.45C1480.78 223.873 1485.55 220.284 1488.36 213.691C1492.55 203.849 1490.17 188.161 1474.17 185.31C1470.96 184.737 1467.72 184.307 1464.47 183.966C1451.59 182.612 1438.85 182.115 1427.14 190.947Z" fill="#68B883"/>
<path d="M913.176 336.306C900.118 327.917 895.324 315.346 894.104 301.001C893.363 292.292 893.062 283.544 892.548 274.551C890.686 274.551 888.747 274.551 886.605 274.551C886.102 279.639 885.756 284.859 885.047 290.03C881.284 317.47 865.579 336.197 837.905 339.857C813.881 343.033 790.537 339.191 772.691 320.26C762.154 309.084 755.977 295.328 752.093 280.571C747.927 264.745 746.584 248.618 745.822 232.261C744.724 208.667 746.647 185.633 754.098 163.227C758.645 149.551 765.336 136.956 775.987 126.903C786.074 117.381 798.108 112.054 811.884 110.22C825.3 108.433 838.512 108.513 851.319 113.306C866.147 118.855 876.303 129.686 882.877 143.646C887.004 152.408 889.709 161.841 893.062 171.002C893.062 169.519 893.062 167.839 893.062 166.159C893.062 125.825 892.99 85.4919 893.117 45.159C893.146 35.9046 895.088 27.0492 899.82 18.8216C906.26 7.62566 916.153 1.6745 928.508 0.482894C938.099 -0.442109 947.887 -0.493242 956.911 4.54512C968.34 10.9257 973.782 21.1293 975.972 33.4064C976.807 38.0913 977.012 42.9397 977.016 47.7141C977.081 113.214 976.834 178.715 977.26 244.212C977.341 256.603 979.954 268.984 981.502 281.356C982.873 292.316 984.583 303.209 981.171 314.171C977.09 327.28 968.287 334.966 955.183 338.38C941.049 342.062 927.111 343.604 913.176 336.306ZM895.066 223.656C898.203 211.252 891.774 196.548 878.015 194.086C865.03 191.764 852.258 191.471 839.32 194.078C832.114 195.53 825.796 198.419 823.391 205.568C821.653 210.734 821.074 216.54 821.204 222.031C821.461 232.84 829.043 240.292 839.723 242.381C850.531 244.496 861.29 244.929 872.125 243.255C883.271 241.535 891.721 237.996 895.066 223.656Z" fill="#68B883"/>
<path d="M175.98 340.285C146.499 340.284 117.5 340.699 88.5208 340.111C73.466 339.806 58.3467 338.838 43.6802 334.361C20.0378 327.144 7.35685 310.418 3.28691 287.055C1.06364 274.292 0.263925 261.146 0.19993 248.166C-0.10488 186.353 -0.00948173 124.538 0.145914 62.7243C0.167764 54.0268 1.84931 45.5271 6.75755 37.9366C14.7445 25.585 26.5567 20.2747 40.6746 19.3342C51.2851 18.6273 61.8473 19.2187 71.4165 24.4853C82.5866 30.633 89.5981 39.9647 91.0073 52.8756C91.669 58.9382 92.0091 65.0662 92.0167 71.1652C92.0895 129.814 92.0603 188.462 92.0605 247.111C92.0605 248.277 92.0112 249.446 92.0712 250.609C92.5899 260.66 99.0397 264.002 107.887 259.189C124.706 250.039 140.914 239.591 159.529 234.136C178.835 228.479 198.207 227.984 217.014 235.488C231.8 241.387 240.16 253.647 243.865 268.638C247.135 281.872 246.48 295.269 241.61 308.232C236.89 320.792 228.265 329.522 215.715 334.234C206.579 337.664 197.14 339.519 187.306 339.354C183.7 339.293 180.082 339.954 175.98 340.285Z" fill="#68B883"/>
<path d="M606.807 196.258C596.219 198.125 586.158 200.534 575.954 201.65C566.878 202.643 557.509 203.284 548.512 202.151C534.247 200.354 524.756 191.264 520.491 177.789C516.423 164.938 515.611 151.783 524.182 140.028C529.699 132.461 537.279 127.361 545.681 123.245C559.445 116.501 574.035 112.482 588.938 109.451C592.947 108.635 597.123 108.412 601.23 108.34C610.278 108.18 619.352 107.892 628.378 108.368C651.845 109.604 674.166 115.056 692.91 129.994C704.461 139.199 712.186 151.576 716.983 165.581C721.679 179.29 724.882 193.337 725.052 207.913C725.431 240.173 726.749 272.467 725.671 304.68C725.023 324.048 710.053 340.139 687.671 340.322C678.406 340.398 669.257 340.369 660.831 335.627C649.06 329.002 643.881 318.296 642.11 305.543C641.389 300.348 641.199 295.079 640.746 289.574C638.739 289.574 636.805 289.574 634.876 289.574C633.807 295.693 633.173 302.054 631.538 308.147C627.239 324.175 616.6 334.116 600.471 337.447C577.558 342.179 554.663 343.257 532.878 332.548C516.412 324.455 507.203 310.466 503.171 292.983C500.063 279.501 500.308 265.985 503.938 252.518C508.402 235.96 519.931 226.005 534.849 219.543C553.852 211.311 574.176 211.025 594.218 212.606C609.91 213.844 625.39 217.76 640.996 220.492C645.085 199.43 623.069 192.647 606.807 196.258ZM612.764 232.264C603.491 232.607 594.192 232.638 584.956 233.419C580.093 233.83 576.448 238.532 576.071 243.169C575.698 247.748 579.062 252.704 583.872 254.273C586.319 255.072 588.898 255.9 591.429 255.937C603.399 256.111 615.497 257.956 627.162 253.406C631.716 251.629 633.888 248.23 633.988 243.639C634.089 239.013 631.475 235.652 627.156 234.465C622.797 233.266 618.189 232.974 612.764 232.264Z" fill="#68B883"/>
<path d="M1197.06 225.311C1197.06 249.638 1197.25 273.472 1196.95 297.3C1196.85 305.303 1196.04 313.473 1191.82 320.624C1184.65 332.779 1174.12 339.757 1159.78 340.261C1150.72 340.58 1141.59 340.82 1133.25 336.283C1121.26 329.757 1113.45 320.203 1112.07 306.21C1111.6 301.458 1111.11 296.68 1111.1 291.912C1111.03 246.083 1111.02 200.253 1111.09 154.423C1111.11 142.612 1114.02 131.547 1121.82 122.401C1128.12 115.006 1136.59 110.716 1146.11 109.619C1157.35 108.323 1168.64 108.78 1178.57 115.393C1189.63 122.756 1194.74 133.706 1195.97 146.488C1196.91 156.184 1197.04 165.958 1197.55 175.993C1199.15 175.993 1200.86 175.993 1202.02 175.993C1203.72 166.564 1204.68 157.204 1207.17 148.272C1212.9 127.705 1231.44 113.524 1252.58 110.234C1265.7 108.19 1278.56 108.844 1290.86 113.811C1306.7 120.205 1316.11 132.808 1321.97 148.307C1327.55 163.039 1330.06 178.364 1330.06 194.107C1330.06 230.104 1329.89 266.102 1330.13 302.098C1330.25 319.537 1317.22 335.835 1301.04 339.068C1285.86 342.101 1270.75 341.771 1257.94 331.177C1249.65 324.316 1244.28 315.445 1244.15 304.493C1243.86 278.498 1244.39 252.492 1243.87 226.504C1243.71 218.278 1242.33 209.743 1239.67 201.985C1236.34 192.297 1229.02 188.832 1218.09 189.29C1210.44 189.61 1202.52 195.507 1200.21 204.056C1198.39 210.768 1198.05 217.88 1197.06 225.311Z" fill="#68B883"/>
<path d="M314.12 120.313C327.877 113.204 342.107 109.593 357.195 108.12C377.671 106.122 397.695 107.631 417.033 114.365C444.208 123.829 463.363 142.054 474.408 168.876C480.946 184.752 483.715 201.107 484.226 218.21C484.809 237.723 483.162 256.777 477.103 275.381C472.285 290.173 464.682 303.333 453.528 314.195C440.11 327.263 423.623 334.363 405.494 338.364C389.788 341.83 373.866 342.142 358.074 341.091C328.861 339.148 303.127 328.612 283.478 306.06C270.72 291.417 263.318 274 260.203 254.968C258.454 244.281 257.15 233.361 257.265 222.563C257.469 203.256 260.591 184.259 269.43 166.801C279.485 146.942 294.281 131.38 314.12 120.313ZM430.053 213.249C428.467 205.048 423.005 200.174 415.398 198.425C406.686 196.422 397.73 195.365 388.831 194.31C368.529 191.903 348.295 192.883 328.404 197.453C316.56 200.174 311.416 207.153 311.288 216.069C311.158 225.141 315.289 232.135 326.67 235.081C337.058 237.77 347.874 239.495 358.587 240.087C375.066 240.998 391.595 240.414 407.94 237.321C422.023 234.655 431.279 227.384 430.053 213.249Z" fill="#68B883"/>
<path d="M1088.06 186.29C1088.06 225.768 1088.07 264.746 1088.06 303.724C1088.05 323.188 1071.02 340.222 1051.63 340.307C1042.08 340.349 1032.46 340.881 1023.67 336.099C1011.99 329.743 1005.63 319.298 1005.28 306.572C1004.32 271.671 1004.36 236.742 1004.09 201.823C1003.97 186.666 1003.91 171.504 1004.13 156.349C1004.27 146.332 1004.44 136.167 1009.2 126.976C1015.53 114.769 1026.07 108.636 1039.54 108.453C1047.92 108.34 1056.63 108.662 1064.63 110.848C1077.47 114.357 1084.5 124.351 1086.89 137.073C1088.15 143.82 1087.89 150.881 1088.02 157.806C1088.19 167.131 1088.06 176.462 1088.06 186.29Z" fill="#68B883"/>
<path d="M1658.92 233.339C1636.47 231.499 1618.49 216.47 1614.97 193.43C1612.67 178.365 1614.3 164.118 1623.12 151.549C1632.54 138.136 1645.92 130.817 1662.36 130.445C1671.24 130.244 1680.38 130.581 1689 132.508C1707.84 136.724 1722.36 154.369 1724.29 174.368C1725.54 187.278 1723.95 199.252 1717.91 210.468C1710.49 224.243 1698.01 230.992 1682.98 233.197C1676.96 234.08 1670.79 234.043 1664.69 234.233C1662.93 234.288 1661.14 233.679 1658.92 233.339Z" fill="#68B883"/>
<path d="M1837.83 234.288C1826.1 234.658 1815.01 233.738 1804.54 229.244C1789.12 222.626 1778.75 208.388 1776.96 190.48C1775.89 179.841 1776.82 169.686 1780.93 159.822C1787.29 144.527 1799.19 135.226 1814.78 131.753C1829.19 128.543 1843.92 128.576 1858.04 134.717C1873.56 141.47 1882.57 153.503 1885.89 169.635C1888.67 183.106 1887.68 196.509 1881.09 208.961C1873.53 223.213 1861.2 230.671 1845.61 233.274C1843.18 233.679 1840.74 233.953 1837.83 234.288Z" fill="#68B883"/>
<path d="M2028.35 225.592C2020.42 231.596 2011.23 233.339 2002.21 234.06C1986.79 235.292 1971.57 233.8 1958.38 224.324C1946.1 215.501 1940.07 203.214 1939.09 188.335C1938.34 177.021 1939.39 165.929 1945.11 155.839C1952.16 143.396 1962.59 135.194 1976.67 132.048C1992.7 128.465 2008.63 128.422 2023.49 136.246C2039.75 144.81 2048.2 158.827 2049 177.173C2049.42 186.701 2049.38 196.173 2045.22 205.26C2041.43 213.539 2036.3 220.424 2028.35 225.592Z" fill="#68B883"/>
<path d="M1007.77 34.1331C1017.43 20.5319 1030.64 15.9201 1046.49 16.1523C1056.57 16.3001 1065.98 17.6894 1074.59 23.2707C1083.87 29.2892 1088.45 38.557 1089.69 48.7054C1091.01 59.5444 1091.2 70.7172 1085.22 80.9966C1078.52 92.4926 1068.38 97.5525 1055.72 99.3871C1046.25 100.758 1037.19 99.7497 1028.02 97.4215C1013.94 93.847 1004.12 81.0488 1002.12 67.1255C1000.48 55.7141 1001.81 44.664 1007.77 34.1331Z" fill="#68B883"/>
</svg>
