<svg width="846" height="107" viewBox="0 0 846 107" fill="none" xmlns="http://www.w3.org/2000/svg">
<g clip-path="url(#clip0_387_984)">
<path d="M815.793 100.195C816.097 100.023 816.284 99.7621 816.526 99.6907C818.778 99.027 821.018 98.3057 823.304 97.7852C824.978 97.4039 826.714 97.2878 828.425 97.073C830.875 96.7653 833.38 96.8028 835.58 95.3378C838.371 93.4801 840.024 91.0007 840.518 87.657C841.039 84.1305 839.804 81.2415 837.48 78.7688C836.038 77.235 834.172 76.2841 832.056 75.9885C830.511 75.7727 829.76 74.8765 829.357 73.4383C828.171 69.2021 825.393 66.673 821.059 65.8091C815.155 64.6322 809.602 68.8878 808.874 74.2972C808.71 75.5159 808.761 76.7829 808.869 78.014C808.996 79.4473 808.3 80.3469 807.195 81.0107C802.258 83.9753 801.154 91.2117 804.368 95.7071C805.841 97.768 807.738 99.2544 810.263 99.8324C810.371 99.8571 810.453 99.9948 810.482 100.138C812.178 100.195 813.939 100.195 815.793 100.195Z" fill="#69B783"/>
<path d="M766.171 0.195313C765.94 0.365326 765.835 0.595958 765.657 0.69634C762.526 2.45663 760.684 5.31832 759.929 8.61729C759.053 12.4454 761.364 15.8395 765.348 16.4301C768.931 16.9613 771.962 14.5445 772.441 11.9989C773.188 8.03637 772.807 4.21726 769.935 1.03159C769.682 0.751455 769.361 0.532522 769.139 0.240238C768.224 0.195311 767.243 0.195311 766.171 0.195313Z" fill="#69B783"/>
<path d="M761.135 27.8804C760.904 28.4464 760.652 28.939 760.546 29.4612C760.205 31.149 759.186 31.9653 757.501 32.2332C754.157 32.7646 751.819 34.7742 750.282 37.6814C748.45 41.1495 748.665 44.6894 750.675 47.9729C752.438 50.8531 755.044 52.6644 758.556 52.9362C763.303 53.3036 767.965 54.0687 772.439 55.8077C774.977 56.7942 777.61 56.9882 780.207 56.0239C783.45 54.8197 786.428 51.8116 787.005 47.9449C787.385 45.4017 787.182 42.9745 785.764 40.8529C784.839 39.4675 783.599 38.2457 782.327 37.1513C781.133 36.1233 780.889 35.7277 781.092 34.1646C781.547 30.6703 780.732 27.4163 778.198 24.9757C774.181 21.1055 768.344 20.6909 763.835 24.3741C762.654 25.3387 761.809 26.474 761.135 27.8804Z" fill="#69B783"/>
<path d="M788.595 18.0123C790.139 16.245 790.479 14.1577 790.247 12.0293C790.071 10.4086 789.662 8.77115 789.076 7.2488C788.475 5.68451 787.62 4.17108 785.676 3.83845C784.19 3.5841 782.992 4.25805 781.964 5.14606C779.699 7.10368 777.995 9.44617 777.33 12.4548C776.586 15.8191 779.021 19.8022 782.895 20.1388C785.152 20.3348 787.005 19.6886 788.595 18.0123Z" fill="#69B783"/>
<path d="M825.12 44.8598C823.104 43.4075 820.733 43.5381 819.295 45.8699C818.254 47.5595 817.743 49.3762 817.419 51.3107C817.129 53.0372 817.231 54.6879 817.843 56.2991C818.648 58.421 820.231 59.6714 822.431 60.1552C825.66 60.865 828.54 59.2189 829.823 56.4229C830.543 54.8528 830.554 53.1377 829.94 51.4781C828.966 48.8449 827.445 46.6027 825.12 44.8598Z" fill="#69B783"/>
<path d="M801.276 61.4641C802.594 62.9554 804.233 63.7935 806.101 63.8304C809.335 63.8942 812.395 61.7733 812.758 58.0321C813.034 55.1873 811.811 52.8639 810.083 50.7785C809.299 49.8322 808.342 49.0109 807.384 48.2309C805.505 46.7016 802.96 47.3538 801.778 49.3535C800.585 51.3738 799.988 53.5442 799.865 55.8708C799.761 57.8595 799.889 59.7824 801.276 61.4641Z" fill="#69B783"/>
<path d="M802.41 77.1303C804.294 73.9635 803.044 70.67 800.452 68.7442C798.838 67.5444 797.163 66.4768 795.207 65.9404C793.69 65.5247 792.155 65.2459 790.951 66.6462C790.099 67.637 790.038 68.8969 790.129 70.0973C790.293 72.2637 790.915 74.3221 791.89 76.2788C793.113 78.7321 795.063 79.9993 797.796 79.8629C799.739 79.766 801.318 78.8757 802.41 77.1303Z" fill="#69B783"/>
<path d="M756.511 18.5673C755.266 16.3066 753.885 14.257 751.704 12.8683C750.498 12.1002 748.355 11.8975 747.229 13.6255C746.295 15.0595 745.779 16.6437 745.666 18.2642C745.498 20.6639 745.144 23.1384 746.719 25.3427C748.686 28.0939 752.697 28.444 755.198 26.4504C757.521 24.5989 757.895 21.0751 756.511 18.5673Z" fill="#69B783"/>
<path d="M834.968 60.0971C833.557 62.0103 832.522 63.9477 832.658 66.3935C832.838 69.6209 836.23 72.2598 839.494 71.603C842.889 70.9201 844.428 68.3819 844.405 65.2964C844.392 63.436 844.519 61.5591 843.805 59.7854C843.463 58.9365 843.123 58.0531 842.595 57.3207C841.745 56.142 840.351 55.9115 838.886 56.5909C837.254 57.3471 836.065 58.6233 834.968 60.0971Z" fill="#69B783"/>
<path d="M793.163 36.3279C795.431 36.0238 796.893 34.7338 797.897 32.8721C799.179 30.495 799.882 27.9744 799.678 25.2387C799.513 23.0182 798.403 22.0406 796.248 22.2501C792.799 22.5853 790.025 24.2707 787.877 26.8066C785.32 29.8266 786.495 34.5534 790.356 35.9271C791.202 36.2283 792.165 36.203 793.163 36.3279Z" fill="#69B783"/>
</g>
<path d="M47.9102 104.443C45.5186 104.849 43.2389 105.361 40.9308 105.613C38.2844 105.903 35.6054 106.174 32.9535 106.081C25.845 105.834 18.9063 104.637 12.3367 101.739C9.04058 100.285 5.99618 98.4767 3.50841 95.8253C1.6473 93.8419 0.540278 91.5581 0.154846 88.8128C-0.38374 84.9766 0.47209 81.5635 2.88804 78.6258C4.80226 76.2982 7.33621 74.9214 10.4108 74.5538C15.0655 73.9972 19.2426 75.5871 23.4648 77.1658C26.5488 78.3189 29.657 79.5112 32.8578 80.2179C35.8596 80.8806 39.0126 81.0366 41.9522 79.6148C43.9742 78.6368 44.3465 76.3416 42.839 74.6797C41.0333 72.689 38.5659 72.1054 36.1337 71.4427C30.5167 69.9123 24.8718 68.4781 19.284 66.8483C15.8364 65.8428 12.5518 64.4082 9.58691 62.2943C5.71406 59.533 3.30104 56.0116 2.80132 51.142C2.30609 46.3162 2.9451 41.7767 5.76409 37.8105C8.23049 34.3403 11.6548 31.9479 15.6878 30.5051C19.3747 29.1861 23.1581 28.3052 27.0828 28.0764C29.263 27.9493 31.4436 27.5942 33.617 27.6451C36.4695 27.7119 39.3442 27.9004 42.1559 28.3619C45.3269 28.8823 48.5 29.5701 51.56 30.5391C55.1608 31.6795 58.35 33.6355 60.5903 36.8101C62.0936 38.9404 62.5587 41.3356 62.3952 43.9434C62.282 45.7484 62.071 47.4725 61.2356 49.0979C59.4685 52.536 56.5286 54.0804 52.8029 54.3315C49.0842 54.582 45.6285 53.3763 42.1612 52.297C38.1013 51.0332 33.9983 49.9672 29.7087 50.2844C28.2499 50.3923 26.762 50.8295 25.4081 51.4016C24.3658 51.8421 23.5423 52.7034 23.5468 54.0794C23.5513 55.4396 24.2966 56.3242 25.3889 56.7467C27.9153 57.724 30.4788 58.6379 33.0866 59.365C37.5137 60.5993 42.0433 61.488 46.4249 62.8573C51.3687 64.4024 56.1772 66.3391 59.9673 70.1226C62.4575 72.6083 63.9656 75.5926 64.4968 79.0321C65.0717 82.755 64.9177 86.4789 63.9631 90.1362C62.7461 94.7987 59.9528 98.343 55.99 100.986C53.548 102.614 50.8395 103.677 47.9102 104.443Z" fill="#68B883"/>
<path d="M509.061 96.0282C509.047 100 507.594 103.289 503.813 104.833C498.428 107.032 490.81 105.565 488.961 98.4133C488.697 97.3883 488.582 96.2971 488.579 95.2361C488.553 83.9164 488.527 72.5964 488.585 61.2769C488.602 57.8683 489.451 54.7072 492.151 52.2941C493.598 51.0011 495.331 50.3534 497.161 50.0942C499.329 49.787 501.529 49.8765 503.599 50.7668C506.595 52.0555 508.066 54.5386 508.776 57.5624C508.964 58.3635 509.015 59.209 509.03 60.0359C509.065 62.0326 509.041 64.0303 509.041 66.0824C509.624 66.0824 510.091 66.0824 510.605 66.0824C510.726 64.7194 510.827 63.3427 510.972 61.9707C511.627 55.7783 514.241 51.8773 520.537 50.3701C524.777 49.3551 529.094 49.7027 532.831 52.4159C535.602 54.4277 536.995 57.3454 537.684 60.5924C538.06 62.3614 538.16 64.1888 538.394 66.0711C538.755 66.0711 539.22 66.0711 539.758 66.0711C539.876 64.8599 539.995 63.6102 540.122 62.3614C540.722 56.4447 544.446 51.2077 551.141 50.2215C554.386 49.7434 557.563 49.9131 560.613 51.1172C564.419 52.6197 566.49 55.7298 567.528 59.4729C568.207 61.9238 568.665 64.5042 568.743 67.0413C569.026 76.283 569.157 85.5304 569.233 94.7766C569.255 97.3884 568.894 100.005 567.055 102.12C565.235 104.214 562.968 105.48 560.176 105.627C557.669 105.759 555.181 105.738 552.911 104.347C550.329 102.764 548.472 100.565 548.367 97.5386C548.119 90.3749 548.189 83.2007 548.041 76.0327C548.012 74.5936 547.702 73.13 547.313 71.7362C546.82 69.9722 545.44 69.2539 543.09 69.2708C541.502 69.2823 540.066 70.2506 539.666 71.8212C539.299 73.2617 538.967 74.7573 538.949 76.2327C538.872 82.574 538.954 88.9172 538.893 95.2589C538.875 97.2315 538.663 99.234 537.607 100.984C535.88 103.848 533.37 105.494 529.973 105.637C527.54 105.74 525.122 105.686 522.933 104.41C519.979 102.688 518.294 100.076 518.232 96.6917C518.112 90.2312 518.267 83.7656 518.153 77.3049C518.119 75.4036 517.704 73.4738 517.207 71.6258C516.704 69.7527 515.299 69.1198 512.82 69.2715C511.492 69.3527 510.038 70.5706 509.795 72.0552C509.515 73.7685 509.433 75.5142 509.21 77.4471C509.117 77.9651 509.048 78.2818 509.047 78.5986C509.047 84.4085 509.055 90.2183 509.061 96.0282Z" fill="#68B883"/>
<path d="M363.459 77.8826C360.5 79.4378 357.432 80.3809 354.212 80.8307C347.877 81.7155 341.506 81.16 335.152 81.315C334.953 81.3198 334.754 81.3338 334.367 81.3527C334.367 81.7808 334.367 82.2016 334.367 82.6224C334.367 86.6765 334.491 90.736 334.311 94.7821C334.227 96.6699 333.822 98.6445 333.089 100.38C331.755 103.54 329.029 105.238 325.714 105.576C323.178 105.834 320.598 105.821 318.094 104.763C315.014 103.462 313.227 101.206 312.48 98.0755C312.153 96.7025 311.999 95.2594 311.983 93.8458C311.927 88.5881 311.834 83.3255 312 78.0726C312.139 73.6933 312.456 69.2924 314.055 65.1308C315.958 60.1802 319.236 56.3993 323.854 53.8475C323.947 52.3773 323.193 52.1146 321.89 52.1338C319.313 52.1717 316.842 51.5851 314.851 49.8304C313.15 48.3319 312.057 46.3957 311.593 44.1761C310.704 39.9262 310.751 35.779 313.474 32.0972C315.254 29.6894 317.712 28.3609 320.7 28.3454C331.019 28.292 341.338 28.249 351.656 28.3566C356.878 28.4111 361.615 30.0955 365.789 33.3404C370.31 36.8556 372.549 41.6269 373.356 47.1035C373.835 50.3528 374.109 53.6692 374.064 56.9497C374.002 61.3804 373.291 65.7732 371.193 69.7588C369.414 73.1386 366.993 76.0015 363.459 77.8826ZM352.584 62.5501C352.722 62.4751 352.887 62.4276 352.992 62.3208C355.545 59.7243 355.765 54.3248 353.547 51.4441C351.883 49.2818 349.478 48.9655 347.11 48.8447C343.589 48.665 340.051 48.7554 336.522 48.8122C333.891 48.8545 332.987 49.6932 332.936 52.1211C332.875 55.0475 332.869 57.9775 332.938 60.9035C332.996 63.3505 333.965 64.2119 336.399 64.2127C340.17 64.2139 343.942 64.2553 347.712 64.1938C349.415 64.166 351.066 63.7878 352.584 62.5501Z" fill="#68B883"/>
<path d="M70.9599 101.582C69.6804 99.3898 69.3279 97.0844 69.3306 94.6592C69.3528 74.5908 69.3327 54.5224 69.3551 34.4541C69.3583 31.6124 70.1102 28.9516 72.0526 26.795C73.519 25.1669 75.4136 24.1196 77.5918 23.8648C80.0777 23.5739 82.5909 23.4902 84.9157 24.7485C87.4512 26.1208 88.9105 28.321 89.542 31.0488C89.8698 32.4649 90.0341 33.9497 90.0404 35.4044C90.0825 45.1575 90.0623 54.9108 90.0623 64.6641C90.0623 65.1007 90.0623 65.5373 90.0623 66.0559C90.5459 66.0559 90.9589 66.0559 91.2657 66.0559C91.6595 63.8652 91.8693 61.6462 92.4756 59.5414C93.8086 54.9139 96.9779 52.0459 101.582 50.7115C105.342 49.6215 109.106 49.6385 112.78 50.9426C117.135 52.4883 119.368 56.0034 120.625 60.1894C121.605 63.4531 122.101 66.8246 122.104 70.2473C122.112 78.957 122.014 87.6682 122.149 96.3757C122.21 100.262 119.216 104.305 115.628 105.173C112.303 105.977 109 106.082 105.933 104.397C103.068 102.824 101.481 100.237 101.418 96.974C101.307 91.2767 101.428 85.5753 101.365 79.8765C101.342 77.8601 101.199 75.8241 100.867 73.8377C100.5 71.6396 99.2614 69.9177 96.9891 69.3803C95.02 68.9146 93.1284 69.3264 91.8294 71.0303C90.6852 72.5312 90.0719 74.2871 90.0678 76.1988C90.0544 82.5003 90.0923 88.802 90.0452 95.1031C90.0298 97.1589 89.7063 99.1717 88.6384 101.016C86.9536 103.927 84.3998 105.415 81.1181 105.619C78.7408 105.767 76.2936 105.871 74.2107 104.419C73.0612 103.618 72.0779 102.579 70.9599 101.582Z" fill="#68B883"/>
<path d="M135.767 54.0264C139.768 51.8609 143.929 50.4093 148.376 50.0348C151.49 49.7725 154.648 49.6043 157.758 49.8187C162.262 50.1292 166.636 51.1937 170.538 53.6337C173.909 55.7419 176.266 58.7315 177.761 62.3869C179.208 65.9243 180.08 69.619 180.153 73.4416C180.297 81.0112 180.403 88.583 180.383 96.1535C180.372 100.057 178.618 103.116 175.012 104.833C171.837 106.344 165.145 106.088 162.673 102.972C161.24 101.167 160.254 99.2131 160.163 96.8578C160.12 95.7514 159.958 94.6495 159.841 93.4495C159.39 93.4495 158.896 93.4495 158.435 93.4495C158.187 94.9065 158.041 96.4037 157.668 97.8416C156.618 101.877 153.853 104.308 149.887 105.071C145.065 105.999 140.193 106.225 135.437 104.463C130.592 102.667 127.844 99.0834 126.707 94.1834C125.945 90.8955 125.982 87.5819 126.934 84.3206C128.081 80.3887 130.885 78.0373 134.518 76.5021C139.05 74.5868 143.842 74.5913 148.599 74.868C152.203 75.0776 155.812 75.6156 159.227 76.9611C159.432 77.0419 159.671 77.0364 159.895 77.0712C160.346 73.6346 158.941 71.9308 156.389 71.1801C155.198 70.8298 153.863 70.6127 152.649 70.769C149.841 71.1305 147.069 71.7726 144.277 72.2707C141.161 72.8265 138.071 73.0898 135.101 71.5591C132.685 70.314 131.236 68.2779 130.637 65.7454C130.08 63.3888 129.848 60.9258 131.044 58.6422C132.094 56.6377 133.644 55.0909 135.767 54.0264ZM157.788 80.9853C157.291 80.6853 156.83 80.2629 156.291 80.1051C152.958 79.1288 149.575 79.2769 146.215 79.9111C145.144 80.1134 144.457 81.0073 144.306 82.0988C144.169 83.0833 144.515 84.0302 145.426 84.5066C146.165 84.8924 147.02 85.177 147.846 85.2504C150.576 85.493 153.309 85.6515 156.018 84.9416C157.883 84.4529 158.767 82.723 157.788 80.9853Z" fill="#68B883"/>
<path d="M667.52 104.758C663.908 102.994 662.047 100.201 662.036 96.2498C662.02 90.2306 662.114 84.2094 661.986 78.1928C661.943 76.2131 661.606 74.1579 660.955 72.2935C660.14 69.9586 658.36 69.0813 655.727 69.2878C653.556 69.458 652.151 70.8001 651.472 72.7567C651.028 74.0352 650.758 75.4382 650.741 76.7896C650.666 82.9284 650.752 89.0691 650.682 95.2081C650.66 97.1335 650.483 99.0967 649.479 100.833C647.75 103.825 645.19 105.51 641.689 105.637C639.419 105.72 637.136 105.75 635.087 104.56C632.375 102.985 630.566 100.737 630.239 97.5192C630.095 96.0971 630.002 94.6631 629.999 93.2342C629.98 82.4396 629.975 71.6449 629.997 60.8502C630.003 58.0092 630.709 55.3439 632.591 53.1423C634.113 51.3608 636.16 50.3406 638.45 50.0781C641.158 49.7676 643.875 49.8855 646.266 51.4817C648.93 53.2597 650.151 55.8983 650.446 58.9756C650.67 61.31 650.704 63.6626 650.825 66.0731C651.219 66.0731 651.633 66.0731 651.904 66.0731C652.316 63.7878 652.543 61.5325 653.146 59.3823C654.53 54.4452 658.976 51.0094 664.09 50.2348C667.535 49.713 670.877 49.9188 674.057 51.448C677.479 53.0939 679.496 55.968 680.802 59.4001C682.151 62.9449 682.753 66.6364 682.752 70.4275C682.751 79.0954 682.702 87.7636 682.774 96.4309C682.808 100.507 679.684 104.44 676 105.275C673.164 105.918 670.343 105.931 667.52 104.758Z" fill="#68B883"/>
<path d="M621.857 83.4212C624.326 85.5034 625.178 88.2261 625.41 91.2263C625.637 94.1687 625.146 96.9379 623.208 99.2651C621.467 101.356 619.162 102.702 616.668 103.679C613.151 105.057 609.48 105.642 605.703 105.935C600.847 106.311 596.131 105.88 591.513 104.425C583.837 102.008 578.359 97.1929 575.527 89.5477C574.416 86.5501 574.026 83.4521 573.8 80.2688C573.466 75.5703 573.938 71.004 575.556 66.6232C578.678 58.1734 584.61 52.7212 593.408 50.4768C596.594 49.6641 599.836 49.3707 603.097 49.5413C608.688 49.8338 613.931 51.3295 618.439 54.7662C621.872 57.3841 624.421 60.7522 625.05 65.1024C625.484 68.1036 625.583 71.2597 623.459 73.8608C622.038 75.5997 620.029 76.5635 617.887 76.6847C612.303 77.0008 606.705 77.0901 601.111 77.2063C597.862 77.2737 594.611 77.2185 591.363 77.2185C591.257 79.9823 593.907 82.3118 596.779 82.753C600.314 83.2961 603.793 82.9672 607.289 82.2359C609.985 81.672 612.745 81.2473 615.491 81.1356C617.781 81.0424 620.041 81.6372 621.857 83.4212ZM609.049 72.0239C608.458 70.4519 607.253 69.4483 605.858 68.6478C603.484 67.2851 600.849 67.3514 598.314 67.7135C596.745 67.9376 595.165 68.7125 593.804 69.5768C592.569 70.361 591.696 71.6383 591.706 73.3657C593.146 73.3657 594.467 73.3657 595.788 73.3657C599.681 73.3657 603.575 73.3946 607.467 73.339C608.175 73.3289 609.271 73.5288 609.049 72.0239Z" fill="#68B883"/>
<path d="M428.898 87.7779C429.64 90.4239 429.907 93.0437 429.214 95.6189C428.338 98.874 426.037 100.993 423.141 102.554C419.9 104.301 416.432 105.281 412.787 105.63C410.454 105.853 408.105 106.15 405.772 106.085C399.845 105.921 394.138 104.702 389.092 101.426C383.168 97.5799 379.616 92.0762 378.482 85.106C378.069 82.571 377.713 79.9757 377.792 77.4222C377.972 71.5994 379.072 65.9901 382.452 61.0194C386.129 55.6122 391.075 52.0869 397.406 50.4866C400.707 49.6524 404.073 49.3389 407.454 49.5454C412.91 49.8785 418.04 51.3523 422.461 54.6865C425.981 57.3414 428.581 60.7757 429.199 65.2081C429.61 68.1562 429.705 71.2899 427.587 73.8527C426.157 75.5837 424.164 76.5513 422.021 76.6857C416.92 77.0056 411.804 77.1018 406.693 77.204C402.962 77.2785 399.229 77.2186 395.501 77.2186C395.311 79.8514 397.968 82.2832 400.887 82.7587C404.877 83.4086 408.769 82.8409 412.662 81.946C415.672 81.2543 418.741 80.6643 421.833 81.3366C425.351 82.1018 427.658 84.3075 428.898 87.7779ZM412.459 70.8101C411.637 70.0888 410.895 69.234 409.975 68.6722C407.639 67.2458 404.979 67.3523 402.443 67.7119C400.874 67.9345 399.294 68.7112 397.932 69.5752C396.696 70.3595 395.819 71.6352 395.828 73.3657C401.079 73.3657 406.214 73.3879 411.348 73.3375C411.988 73.3312 412.625 72.9404 413.263 72.7277C413.056 72.1665 412.85 71.605 412.64 71.0445C412.627 71.0091 412.591 70.9822 412.459 70.8101Z" fill="#68B883"/>
<path d="M270.958 50.2478C274.439 51.1389 277.629 52.4113 280.482 54.4978C284.178 57.2008 286.794 60.6653 287.536 65.194C287.962 67.7914 287.9 70.5332 286.579 72.9946C285.664 74.7002 284.046 75.6292 282.306 76.1961C280.933 76.6434 279.445 76.9326 278.005 76.945C269.953 77.0144 261.9 76.9784 253.875 76.9784C253.602 79.7805 256.258 82.2742 259.203 82.7576C263.192 83.4125 267.083 82.8283 270.98 81.9567C274.217 81.2328 277.496 80.5655 280.82 81.537C284.404 82.5847 286.521 85.0161 287.402 88.5877C288.298 92.2229 288.249 95.7423 285.92 98.9004C284.19 101.246 281.734 102.638 279.096 103.684C275.583 105.076 271.905 105.625 268.133 105.937C263.232 106.342 258.462 105.888 253.83 104.399C246.239 101.958 240.767 97.1524 237.977 89.5272C236.878 86.5238 236.483 83.4306 236.256 80.2482C235.921 75.5498 236.394 70.9819 238.017 66.6053C241.146 58.1642 247.077 52.7107 255.879 50.4746C259.107 49.6547 262.386 49.3918 265.688 49.5497C267.417 49.6324 269.133 50.0032 270.958 50.2478ZM262.69 73.3657C264.894 73.3657 267.099 73.3791 269.303 73.3563C269.847 73.3507 270.392 73.2426 270.933 73.1554C271.779 73.0188 271.797 72.5444 271.481 71.87C270.815 70.4492 269.721 69.4646 268.393 68.6979C265.947 67.2856 263.261 67.3305 260.646 67.7574C259.115 68.0075 257.574 68.7322 256.252 69.5784C255.019 70.3675 254.156 71.6444 254.162 73.3657C257.005 73.3657 259.727 73.3657 262.69 73.3657Z" fill="#68B883"/>
<path d="M733.755 64.3576C731.873 66.4785 729.591 67.5247 726.836 67.3297C724.51 67.1651 722.194 66.8712 719.872 66.6463C719.518 66.6119 719.158 66.6415 718.714 66.6415C718.691 67.0265 718.654 67.376 718.653 67.7256C718.649 72.2202 718.632 76.715 718.669 81.2093C718.675 81.9823 718.796 82.8011 719.075 83.5158C719.803 85.3753 721.324 85.6307 723.388 84.43C724.733 83.6482 726.072 82.7116 727.54 82.3161C732.301 81.0344 736.208 83.2955 737.75 87.9767C739.096 92.0606 738.63 95.903 735.932 99.2714C733.508 102.298 730.245 104.235 726.494 105.101C723.966 105.684 721.33 106.065 718.742 106.067C713.395 106.071 708.523 104.441 704.645 100.614C701.788 97.7944 699.997 94.2972 699.4 90.3225C698.294 82.9594 699.143 75.5356 698.897 68.1432C698.881 67.6707 698.894 67.1971 698.894 66.5064C695.304 67.2806 691.81 67.8317 689.15 64.6586C687.327 62.4828 686.535 59.8476 686.915 57.1238C687.781 50.9048 690.902 47.7453 698.772 49.4775C698.772 47.6884 698.884 45.8958 698.749 44.1218C698.456 40.2392 699.339 35.7926 703.764 33.9849C707.506 32.456 713.946 32.6608 716.971 36.1294C718.062 37.381 718.746 38.821 718.843 40.3832C719.008 43.0615 718.89 45.7578 718.873 48.4464C718.871 48.751 718.748 49.0548 718.65 49.4986C720.148 49.2995 721.569 49.0959 722.995 48.9241C725.623 48.6073 728.234 48.2642 730.79 49.4415C733.529 50.7026 735.053 52.8827 735.738 55.6959C736.506 58.8511 735.774 61.7202 733.755 64.3576Z" fill="#68B883"/>
<path d="M466.767 85.1622C468.435 85.2266 469.673 84.4293 470.807 83.5099C473.36 81.4406 478.543 81.3459 481.198 83.7874C483.242 85.6663 484.24 88.1771 484.46 90.949C484.936 96.9377 481.695 100.721 476.84 103.425C473.978 105.019 470.827 105.626 467.554 105.936C464.211 106.253 460.965 106.046 457.867 104.873C455.871 104.117 453.925 103.072 452.182 101.838C449.429 99.8911 447.527 97.1407 446.501 93.9535C445.748 91.6124 445.103 89.1354 445.022 86.6987C444.817 80.4859 444.954 74.2616 444.954 68.0419C444.954 67.607 444.954 67.1721 444.954 66.6242C443.994 66.7167 443.115 66.6884 442.298 66.8995C438.461 67.891 435.237 65.6994 433.809 62.3531C432.2 58.583 432.853 53.5232 435.885 50.7153C437.802 48.941 440.025 48.9142 442.348 49.0908C443.164 49.1529 443.969 49.3671 444.841 49.5231C444.841 47.6986 444.959 45.9102 444.817 44.1425C444.498 40.156 445.431 35.7201 449.912 33.9476C453.698 32.4499 460.033 32.6437 463.093 36.201C464.171 37.4539 464.824 38.9042 464.909 40.4775C465.052 43.118 464.951 45.7721 464.933 48.4204C464.931 48.7288 464.808 49.0364 464.709 49.49C466.188 49.2994 467.611 49.1314 469.03 48.9295C471.467 48.5827 473.911 48.2965 476.289 49.1827C479.316 50.3107 481.109 52.6021 481.783 55.6702C482.722 59.9415 481.441 63.5348 477.827 66.061C476.81 66.7719 475.406 67.2782 474.181 67.2734C471.418 67.2623 468.657 66.8703 465.895 66.6423C465.545 66.6134 465.19 66.6383 464.71 66.6383C464.71 67.3017 464.71 67.893 464.71 68.4844C464.71 72.7379 464.697 76.9914 464.717 81.2448C464.724 82.8514 465.11 84.3066 466.767 85.1622Z" fill="#68B883"/>
<path d="M185.713 63.4908C185.673 60.5801 185.611 57.7658 186.974 55.2152C188.741 51.9067 191.604 50.2378 195.315 50.0077C198.02 49.84 200.607 50.1816 202.885 51.847C205.13 53.4874 206.254 55.7602 206.659 58.426C206.856 59.7177 206.904 61.0319 207.028 62.4337C207.458 62.4337 207.95 62.4337 208.511 62.4337C208.842 59.7804 209.647 57.291 211.253 55.0512C214.033 51.1759 219.52 49.0326 224.18 49.9366C226.168 50.3223 227.95 50.9182 229.529 52.2253C231.656 53.9855 232.651 56.3093 233.17 58.911C233.661 61.3723 233.444 63.8213 232.667 66.1687C231.51 69.6592 228.912 72.4734 225.021 73.1469C222.29 73.6194 219.762 73.2056 217.338 71.933C215.798 71.1241 214.54 70.0015 213.661 68.498C213.17 67.659 212.501 67.2813 211.537 67.3403C208.553 67.5231 206.961 68.4437 206.933 71.9268C206.873 79.713 206.933 87.5 206.904 95.2866C206.894 97.8675 206.277 100.251 204.606 102.353C203.131 104.208 201.168 105.267 198.986 105.532C196.329 105.855 193.553 106.009 191.032 104.666C188.074 103.089 186.248 100.66 185.975 97.277C185.777 94.814 185.732 92.3339 185.724 89.8611C185.696 81.1112 185.713 72.3611 185.713 63.4908Z" fill="#68B883"/>
<path d="M509.142 95.9622C509.055 90.2183 509.047 84.4085 509.047 78.5986C509.047 78.2818 509.117 77.9651 509.194 77.5591C509.23 83.612 509.226 89.7541 509.142 95.9622Z" fill="#669966"/>
<defs>
<clipPath id="clip0_387_984">
<rect width="100" height="100" fill="white" transform="matrix(-1 0 0 1 845.181 0)"/>
</clipPath>
</defs>
</svg>
