<svg width="18" height="18" viewBox="0 0 12 12" fill="none" xmlns="http://www.w3.org/2000/svg">
<path d="M2.06945 2.10396C2.4588 2.40709 2.60414 2.38407 3.33485 2.33739L10.2232 1.94089C10.3699 1.94089 10.2479 1.80019 10.1992 1.77717L9.05517 0.984173C8.83582 0.821097 8.54381 0.633719 7.98444 0.680404L1.31407 1.14725C1.07139 1.17027 1.02272 1.2873 1.1194 1.38067L2.06945 2.10396ZM2.4828 3.64392V10.5954C2.4828 10.9696 2.67748 11.109 3.11617 11.086L10.6859 10.6658C11.124 10.6428 11.1726 10.3857 11.1726 10.0826V3.17707C11.1726 2.87394 11.0513 2.71022 10.7833 2.73389L2.87216 3.17707C2.58014 3.20009 2.4828 3.34015 2.4828 3.64392ZM9.95655 4.01675C10.0046 4.22652 9.95655 4.43692 9.73654 4.46058L9.37185 4.53029V9.66239C9.05517 9.82611 8.76315 9.91948 8.51981 9.91948C8.13045 9.91948 8.03311 9.80245 7.7411 9.45263L5.35496 5.85984V9.33624L6.11034 9.49932C6.11034 9.49932 6.11034 9.91948 5.50097 9.91948L3.82155 10.0128C3.77288 9.91948 3.82155 9.6867 3.99222 9.63937L4.43025 9.52298V4.92678L3.82155 4.8801C3.77288 4.6697 3.89488 4.36657 4.23557 4.34291L6.037 4.22715L8.51981 7.866V4.64732L7.88644 4.57761C7.83844 4.32052 8.03311 4.13443 8.27646 4.11076L9.95655 4.01739V4.01675ZM0.754042 0.517327L7.69176 0.0274589C8.54314 -0.0428878 8.76249 0.0044363 9.29852 0.377274L11.5126 1.87054C11.878 2.12699 12 2.19669 12 2.4768V10.6658C12 11.1793 11.8053 11.4825 11.124 11.5291L3.06684 11.996C2.55548 12.019 2.31213 11.9493 2.04411 11.6225L0.413356 9.59269C0.12134 9.21921 0 8.93974 0 8.61231V1.33399C0 0.913827 0.194011 0.564012 0.754042 0.517327Z" fill="#D4D4D8"/>
</svg>
