<svg width="48" height="48" viewBox="0 0 48 48" fill="none" xmlns="http://www.w3.org/2000/svg">
<path d="M17.9484 16.3719L17.9481 16.372C16.7942 16.7195 15.4887 16.3114 14.2793 15.1718C13.0731 14.0352 12.0371 12.2263 11.506 10.0005C10.9752 7.77583 11.0636 5.61585 11.609 3.93287C12.1587 2.23687 13.1322 1.12302 14.3027 0.771082C15.4573 0.423941 16.763 0.832219 17.9722 1.97166C19.1782 3.10806 20.214 4.91675 20.7451 7.14257C21.2759 9.3672 21.1875 11.5272 20.6421 13.2102C20.0924 14.9062 19.1189 16.02 17.9484 16.3719ZM6.65066 42.0269C6.65066 38.0968 9.17999 32.8782 12.7102 28.5997C14.4638 26.4743 16.4357 24.6173 18.4088 23.2969C20.3918 21.9699 22.3201 21.2219 24.0005 21.2219C25.6809 21.2219 27.6092 21.9699 29.5921 23.2969C31.5653 24.6173 33.5371 26.4743 35.2907 28.5997C38.8209 32.8782 41.3503 38.0968 41.3503 42.0269C41.3503 43.7434 40.7787 45.0473 39.7854 45.9297C38.782 46.821 37.2714 47.35 35.2747 47.35C33.1343 47.35 31.3394 46.7189 29.5533 46.048C29.4535 46.0105 29.3535 45.9728 29.2534 45.935C27.5918 45.3082 25.881 44.6629 24.0005 44.6629C22.1426 44.6629 20.4473 45.3032 18.7958 45.9269C18.6886 45.9674 18.5815 46.0078 18.4746 46.048C16.6909 46.7185 14.8873 47.35 12.7262 47.35C10.7296 47.35 9.21894 46.821 8.21556 45.9297C7.22223 45.0473 6.65066 43.7434 6.65066 42.0269ZM3.65571 14.4769C4.77364 14.1715 5.9972 14.4956 7.09067 15.3709C8.18445 16.2466 9.10855 17.6501 9.56443 19.3859C10.0203 21.1217 9.90867 22.8111 9.38906 24.1313C8.8691 25.4524 7.96428 26.36 6.84468 26.6658C5.72676 26.9712 4.50319 26.6471 3.40972 25.7717C2.31595 24.8961 1.39184 23.4926 0.935959 21.7567C0.480086 20.0209 0.59172 18.3316 1.11134 17.0114C1.63129 15.6903 2.53612 14.7827 3.65571 14.4769ZM38.6109 24.1324C38.0913 22.8122 37.9797 21.1229 38.4355 19.3871C38.8919 17.6512 39.816 16.2476 40.9097 15.372C42.0031 14.4966 43.2264 14.1726 44.3443 14.4779C45.4639 14.7837 46.3687 15.6913 46.8887 17.0124C47.4083 18.3326 47.5199 20.0219 47.0641 21.7577C46.6077 23.4936 45.6836 24.8972 44.5899 25.7728C43.4965 26.6482 42.2732 26.9722 41.1553 26.6669C40.0357 26.361 39.1309 25.4535 38.6109 24.1324ZM36.4949 10.0005C35.9639 12.2263 34.928 14.035 33.722 15.1714C32.5128 16.3108 31.2071 16.7191 30.0526 16.3719C28.882 16.02 27.9085 14.9062 27.3589 13.2102C26.8134 11.5272 26.725 9.3672 27.2558 7.14257C27.7869 4.91673 28.8228 3.10777 30.0288 1.97123C31.238 0.83166 32.5436 0.423491 33.698 0.771018C34.8687 1.12346 35.8423 2.23747 36.3919 3.93329C36.9373 5.61612 37.0257 7.77582 36.4949 10.0005Z" fill="#F5F5F5" stroke="black" stroke-width="1.3"/>
</svg>
