<svg width="24" height="24" viewBox="0 0 24 24" fill="none" xmlns="http://www.w3.org/2000/svg">
<path d="M12.0001 21C10.5317 20.9987 9.08587 20.6382 7.78878 19.9498C6.49169 19.2614 5.38273 18.2661 4.55866 17.0507C3.73458 15.8353 3.22041 14.4368 3.061 12.977C2.90159 11.5172 3.10179 10.0407 3.64413 8.67604C4.18646 7.31142 5.05446 6.10024 6.17241 5.14813C7.29036 4.19603 8.62429 3.53194 10.0578 3.21378C11.4914 2.89563 12.981 2.93307 14.3968 3.32286C15.8126 3.71264 17.1114 4.44292 18.1801 5.45C18.3206 5.59062 18.3995 5.78125 18.3995 5.98C18.3995 6.17875 18.3206 6.36937 18.1801 6.51C18.1112 6.58075 18.0288 6.63699 17.9377 6.67539C17.8467 6.71378 17.7489 6.73357 17.6501 6.73357C17.5513 6.73357 17.4535 6.71378 17.3625 6.67539C17.2715 6.63699 17.1891 6.58075 17.1201 6.51C15.8592 5.33065 14.2305 4.62177 12.5081 4.5027C10.7857 4.38362 9.0749 4.86163 7.6637 5.85624C6.25249 6.85085 5.22707 8.30132 4.76008 9.96345C4.29308 11.6256 4.41304 13.3979 5.09975 14.9819C5.78645 16.5659 6.99797 17.865 8.53033 18.6604C10.0627 19.4558 11.8223 19.6989 13.5129 19.3488C15.2036 18.9987 16.7219 18.0768 17.8124 16.7383C18.9029 15.3998 19.4989 13.7265 19.5001 12C19.5001 11.8011 19.5791 11.6103 19.7198 11.4697C19.8604 11.329 20.0512 11.25 20.2501 11.25C20.449 11.25 20.6398 11.329 20.7805 11.4697C20.9211 11.6103 21.0001 11.8011 21.0001 12C21.0001 14.3869 20.0519 16.6761 18.3641 18.364C16.6763 20.0518 14.3871 21 12.0001 21Z" fill="#F8F8F8"/>
</svg>
