<svg width="23" height="23" viewBox="0 0 18 18" fill="none" xmlns="http://www.w3.org/2000/svg">
<path d="M5.75 10C6.34674 10 6.91903 10.2371 7.34099 10.659C7.76295 11.081 8 11.6533 8 12.25V15.75C8 16.3467 7.76295 16.919 7.34099 17.341C6.91903 17.7629 6.34674 18 5.75 18H2.25C1.65326 18 1.08097 17.7629 0.65901 17.341C0.237053 16.919 0 16.3467 0 15.75V12.25C0 11.6533 0.237053 11.081 0.65901 10.659C1.08097 10.2371 1.65326 10 2.25 10H5.75ZM15.75 10C16.3467 10 16.919 10.2371 17.341 10.659C17.7629 11.081 18 11.6533 18 12.25V15.75C18 16.3467 17.7629 16.919 17.341 17.341C16.919 17.7629 16.3467 18 15.75 18H12.25C11.6533 18 11.081 17.7629 10.659 17.341C10.2371 16.919 10 16.3467 10 15.75V12.25C10 11.6533 10.2371 11.081 10.659 10.659C11.081 10.2371 11.6533 10 12.25 10H15.75ZM5.75 11.5H2.25C2.05109 11.5 1.86032 11.579 1.71967 11.7197C1.57902 11.8603 1.5 12.0511 1.5 12.25V15.75C1.5 16.164 1.836 16.5 2.25 16.5H5.75C5.94891 16.5 6.13968 16.421 6.28033 16.2803C6.42098 16.1397 6.5 15.9489 6.5 15.75V12.25C6.5 12.0511 6.42098 11.8603 6.28033 11.7197C6.13968 11.579 5.94891 11.5 5.75 11.5ZM15.75 11.5H12.25C12.0511 11.5 11.8603 11.579 11.7197 11.7197C11.579 11.8603 11.5 12.0511 11.5 12.25V15.75C11.5 16.164 11.836 16.5 12.25 16.5H15.75C15.9489 16.5 16.1397 16.421 16.2803 16.2803C16.421 16.1397 16.5 15.9489 16.5 15.75V12.25C16.5 12.0511 16.421 11.8603 16.2803 11.7197C16.1397 11.579 15.9489 11.5 15.75 11.5ZM5.75 0C6.34674 0 6.91903 0.237053 7.34099 0.65901C7.76295 1.08097 8 1.65326 8 2.25V5.75C8 6.34674 7.76295 6.91903 7.34099 7.34099C6.91903 7.76295 6.34674 8 5.75 8H2.25C1.65326 8 1.08097 7.76295 0.65901 7.34099C0.237053 6.91903 0 6.34674 0 5.75V2.25C0 1.65326 0.237053 1.08097 0.65901 0.65901C1.08097 0.237053 1.65326 0 2.25 0H5.75ZM15.75 0C16.3467 0 16.919 0.237053 17.341 0.65901C17.7629 1.08097 18 1.65326 18 2.25V5.75C18 6.34674 17.7629 6.91903 17.341 7.34099C16.919 7.76295 16.3467 8 15.75 8H12.25C11.6533 8 11.081 7.76295 10.659 7.34099C10.2371 6.91903 10 6.34674 10 5.75V2.25C10 1.65326 10.2371 1.08097 10.659 0.65901C11.081 0.237053 11.6533 0 12.25 0H15.75ZM5.75 1.5H2.25C2.05109 1.5 1.86032 1.57902 1.71967 1.71967C1.57902 1.86032 1.5 2.05109 1.5 2.25V5.75C1.5 6.164 1.836 6.5 2.25 6.5H5.75C5.94891 6.5 6.13968 6.42098 6.28033 6.28033C6.42098 6.13968 6.5 5.94891 6.5 5.75V2.25C6.5 2.05109 6.42098 1.86032 6.28033 1.71967C6.13968 1.57902 5.94891 1.5 5.75 1.5ZM15.75 1.5H12.25C12.0511 1.5 11.8603 1.57902 11.7197 1.71967C11.579 1.86032 11.5 2.05109 11.5 2.25V5.75C11.5 6.164 11.836 6.5 12.25 6.5H15.75C15.9489 6.5 16.1397 6.42098 16.2803 6.28033C16.421 6.13968 16.5 5.94891 16.5 5.75V2.25C16.5 2.05109 16.421 1.86032 16.2803 1.71967C16.1397 1.57902 15.9489 1.5 15.75 1.5Z" fill="fill"/>
</svg>
