<svg width="18" height="18" viewBox="0 0 19 20" fill="none" xmlns="http://www.w3.org/2000/svg">
<path d="M11.3631 3.65201L12.8431 2.17201C13.0288 1.98621 13.2493 1.83882 13.492 1.73826C13.7347 1.6377 13.9948 1.58594 14.2576 1.58594C14.5203 1.58594 14.7804 1.6377 15.0231 1.73826C15.2658 1.83882 15.4863 1.98621 15.6721 2.17201L17.0861 3.58601C17.461 3.96107 17.6716 4.46968 17.6716 5.00001C17.6716 5.53034 17.461 6.03895 17.0861 6.41401L15.6061 7.89401M11.3631 3.65201L1.74705 13.267C1.41504 13.599 1.21042 14.0373 1.16905 14.505L0.927053 17.245C0.914056 17.3907 0.933164 17.5374 0.98303 17.6749C1.0329 17.8123 1.11231 17.9372 1.21566 18.0407C1.31902 18.1441 1.44381 18.2236 1.58124 18.2736C1.71866 18.3236 1.86538 18.3429 2.01105 18.33L4.75105 18.088C5.21948 18.0471 5.65852 17.8425 5.99105 17.51L15.6061 7.89401M11.3631 3.65201L15.6061 7.89401" stroke="stroke" stroke-width="1.5" stroke-linecap="round" stroke-linejoin="round"/>
</svg>
