<svg width="20" height="20" fill="none" xmlns="http://www.w3.org/2000/svg">
<path d="M6.62806 5.79832L6.62781 5.79839C6.35732 5.87985 5.99512 5.80336 5.59904 5.43014C5.20599 5.05976 4.84731 4.44723 4.66127 3.66749C4.47548 2.88883 4.51034 2.14607 4.69228 1.58466C4.87812 1.01121 5.1805 0.716191 5.4661 0.630318C5.73697 0.548877 6.09929 0.625535 6.49525 0.998649C6.88825 1.36896 7.24685 1.98139 7.4329 2.76115C7.61868 3.5398 7.58383 4.28256 7.40188 4.84398C7.21604 5.41742 6.91366 5.71244 6.62806 5.79832ZM2.85025 15.7601C2.85025 14.4075 3.73875 12.53 5.04111 10.9516C5.68172 10.1752 6.39619 9.50435 7.10143 9.0324C7.81572 8.5544 8.46908 8.31445 9.00017 8.31445C9.53127 8.31445 10.1846 8.5544 10.8989 9.0324C11.6042 9.50435 12.3186 10.1752 12.9592 10.9516C14.2616 12.53 15.1501 14.4075 15.1501 15.7601C15.1501 16.3199 14.9669 16.705 14.6829 16.9573C14.3897 17.2178 13.9168 17.4 13.228 17.4C12.496 17.4 11.8764 17.1857 11.2078 16.9345C11.1668 16.9191 11.1255 16.9035 11.0838 16.8877C10.472 16.6565 9.77295 16.3923 9.00017 16.3923C8.23563 16.3923 7.54182 16.6549 6.9337 16.885C6.88956 16.9017 6.84587 16.9183 6.80263 16.9345C6.1357 17.1852 5.51248 17.4 4.77233 17.4C4.08358 17.4 3.61066 17.2178 3.31743 16.9573C3.03346 16.705 2.85025 16.3199 2.85025 15.7601ZM1.46476 5.77248C1.74858 5.69495 2.0924 5.76685 2.43636 6.04221C2.78061 6.3178 3.08846 6.77523 3.2421 7.36021C3.39572 7.94515 3.35394 8.50069 3.1894 8.91876C3.02453 9.33764 2.75824 9.57807 2.47288 9.65601C2.18907 9.73354 1.84525 9.66164 1.50129 9.38628C1.15704 9.11069 0.849183 8.65326 0.69555 8.06828C0.541928 7.48334 0.583702 6.92781 0.748249 6.50973C0.913112 6.09085 1.17941 5.85042 1.46476 5.77248ZM14.8106 8.91916C14.6461 8.50109 14.6043 7.94555 14.7579 7.36061C14.9117 6.77559 15.2196 6.31817 15.5638 6.0426C15.9077 5.76725 16.2514 5.69536 16.5352 5.77288C16.8206 5.85083 17.0869 6.09125 17.2517 6.51013C17.4163 6.92821 17.4581 7.48374 17.3044 8.06868C17.1506 8.65371 16.8428 9.11113 16.4986 9.3867C16.1546 9.66205 15.8109 9.73394 15.5271 9.65641C15.2418 9.57847 14.9755 9.33804 14.8106 8.91916ZM13.3391 3.66749C13.153 4.44725 12.7944 5.05967 12.4014 5.42999C12.0055 5.8031 11.6432 5.87976 11.3723 5.79832C11.0867 5.71244 10.7843 5.41742 10.5985 4.84398C10.4165 4.28256 10.3817 3.5398 10.5675 2.76115C10.7535 1.98137 11.1121 1.36884 11.5051 0.998476C11.9011 0.625313 12.2633 0.548756 12.5341 0.63026C12.8199 0.716297 13.1223 1.01148 13.3081 1.58482C13.49 2.14617 13.5249 2.88883 13.3391 3.66749Z" stroke="stroke" stroke-width="1.2"/>
</svg>
