<svg width="30" height="30" viewBox="0 0 30 30" fill="#d4d4d8" xmlns="http://www.w3.org/2000/svg">
<g clip-path="url(#clip0_531_975)">
<path d="M15 0C6.71578 0 0 6.71578 0 15C0 23.2847 6.71578 30 15 30C23.2847 30 30 23.2847 30 15C30 6.71578 23.2847 0 15 0ZM15 28.1545C7.76297 28.1545 1.875 22.237 1.875 14.9999C1.875 7.76291 7.76297 1.87494 15 1.87494C22.237 1.87494 28.125 7.76294 28.125 14.9999C28.125 22.2369 22.237 28.1545 15 28.1545ZM20.9864 9.51141L12.1856 18.3675L8.22231 14.4042C7.85622 14.0381 7.26278 14.0381 6.89622 14.4042C6.53013 14.7703 6.53013 15.3637 6.89622 15.7298L11.5364 20.3705C11.9025 20.7361 12.4959 20.7361 12.8625 20.3705C12.9047 20.3283 12.9408 20.2823 12.9736 20.2345L22.313 10.8375C22.6786 10.4714 22.6786 9.87794 22.313 9.51141C21.9464 9.14531 21.353 9.14531 20.9864 9.51141Z" />
</g>
<defs>
<clipPath id="clip0_531_975">
<rect width="30" height="30" fill="white"/>
</clipPath>
</defs>
</svg>
