<svg width="21" height="20" viewBox="0 0 21 20" fill="none" xmlns="http://www.w3.org/2000/svg">
<path d="M10.5718 12.7C12.1534 12.7 13.4355 11.4912 13.4355 10C13.4355 8.50888 12.1534 7.30005 10.5718 7.30005C8.99015 7.30005 7.70801 8.50888 7.70801 10C7.70801 11.4912 8.99015 12.7 10.5718 12.7Z" stroke="black" stroke-width="1.5"/>
<path d="M12.2566 1.1368C11.9063 1 11.4614 1 10.5718 1C9.6821 1 9.23727 1 8.88694 1.1368C8.65514 1.22726 8.44454 1.35991 8.26715 1.52715C8.08976 1.6944 7.94907 1.89296 7.85312 2.1115C7.7653 2.3122 7.72998 2.5471 7.71661 2.8882C7.71067 3.13479 7.63834 3.37591 7.50643 3.58891C7.37451 3.80192 7.18734 3.97981 6.96249 4.1059C6.73425 4.22654 6.47722 4.29049 6.21556 4.29175C5.9539 4.29301 5.6962 4.23153 5.46666 4.1131C5.14592 3.9529 4.91395 3.8647 4.6839 3.8359C4.18209 3.77368 3.67462 3.90188 3.27302 4.1923C2.97328 4.411 2.74991 4.7737 2.30507 5.5C1.86024 6.2263 1.63687 6.589 1.58818 6.9445C1.55538 7.17891 1.57188 7.41711 1.63674 7.64551C1.7016 7.8739 1.81355 8.08801 1.9662 8.2756C2.10748 8.4484 2.30507 8.5933 2.6115 8.7751C3.06302 9.0424 3.35321 9.4978 3.35321 10C3.35321 10.5022 3.06302 10.9576 2.6115 11.224C2.30507 11.4067 2.10652 11.5516 1.9662 11.7244C1.81355 11.912 1.7016 12.1261 1.63674 12.3545C1.57188 12.5829 1.55538 12.8211 1.58818 13.0555C1.63782 13.4101 1.86024 13.7737 2.30412 14.5C2.74991 15.2263 2.97233 15.589 3.27302 15.8077C3.47199 15.9516 3.69909 16.0572 3.94133 16.1183C4.18358 16.1795 4.43623 16.195 4.68485 16.1641C4.91395 16.1353 5.14592 16.0471 5.46666 15.8869C5.6962 15.7685 5.9539 15.707 6.21556 15.7082C6.47722 15.7095 6.73425 15.7735 6.96249 15.8941C7.42356 16.1461 7.69752 16.6096 7.71661 17.1118C7.72998 17.4538 7.76434 17.6878 7.85312 17.8885C7.94907 18.107 8.08976 18.3056 8.26715 18.4728C8.44454 18.6401 8.65514 18.7727 8.88694 18.8632C9.23727 19 9.6821 19 10.5718 19C11.4614 19 11.9063 19 12.2566 18.8632C12.4884 18.7727 12.699 18.6401 12.8764 18.4728C13.0538 18.3056 13.1945 18.107 13.2904 17.8885C13.3783 17.6878 13.4136 17.4538 13.4269 17.1118C13.446 16.6096 13.72 16.1452 14.1811 15.8941C14.4093 15.7735 14.6663 15.7095 14.928 15.7082C15.1897 15.707 15.4474 15.7685 15.6769 15.8869C15.9976 16.0471 16.2296 16.1353 16.4587 16.1641C16.7073 16.195 16.96 16.1795 17.2022 16.1183C17.4445 16.0572 17.6716 15.9516 17.8705 15.8077C18.1712 15.5899 18.3936 15.2263 18.8385 14.5C19.2833 13.7737 19.5067 13.411 19.5554 13.0555C19.5882 12.8211 19.5717 12.5829 19.5068 12.3545C19.442 12.1261 19.33 11.912 19.1774 11.7244C19.0361 11.5516 18.8385 11.4067 18.5321 11.2249C18.3084 11.0967 18.123 10.9171 17.9933 10.7028C17.8635 10.4886 17.7937 10.2467 17.7903 10C17.7903 9.4978 18.0805 9.0424 18.5321 8.776C18.8385 8.5933 19.037 8.4484 19.1774 8.2756C19.33 8.08801 19.442 7.8739 19.5068 7.64551C19.5717 7.41711 19.5882 7.17891 19.5554 6.9445C19.5057 6.5899 19.2833 6.2263 18.8394 5.5C18.3936 4.7737 18.1712 4.411 17.8705 4.1923C17.6716 4.04838 17.4445 3.94283 17.2022 3.88168C16.96 3.82053 16.7073 3.80497 16.4587 3.8359C16.2296 3.8647 15.9976 3.9529 15.6759 4.1131C15.4465 4.23137 15.189 4.29276 14.9275 4.2915C14.666 4.29024 14.4092 4.22638 14.1811 4.1059C13.9562 3.97981 13.769 3.80192 13.6371 3.58891C13.5052 3.37591 13.4329 3.13479 13.4269 2.8882C13.4136 2.5462 13.3792 2.3122 13.2904 2.1115C13.1945 1.89296 13.0538 1.6944 12.8764 1.52715C12.699 1.35991 12.4884 1.22726 12.2566 1.1368Z" stroke="black" stroke-width="1.5"/>
</svg>
