<svg width="18" height="18" viewBox="0 0 18 18" fill="none" xmlns="http://www.w3.org/2000/svg">
<path fill-rule="evenodd" clip-rule="evenodd" d="M15.1738 1.32314C14.3433 1.47049 13.2198 1.84221 11.6324 2.37217L3.81943 4.97592C2.93198 5.27229 2.32332 5.47657 1.89884 5.68002C1.47772 5.88263 1.36553 6.02663 1.322 6.13128C1.28555 6.21927 1.2635 6.31256 1.2567 6.40756C1.24832 6.51975 1.28432 6.69891 1.57065 7.06896C1.8595 7.44069 2.31243 7.8953 2.97384 8.5567L3.21077 8.79363L3.24426 8.82712C3.4251 9.00796 3.57161 9.15363 3.68631 9.32359C3.91153 9.65429 4.03878 10.0419 4.05469 10.4421C4.06306 10.6464 4.03209 10.8515 3.99441 11.1035L3.98688 11.1504C3.91993 11.5632 3.86409 11.9778 3.81943 12.3937C3.79264 12.6942 3.80269 12.8592 3.82864 12.9739C3.8479 13.0551 3.87218 13.1346 3.90232 13.21L15.8562 1.25616C15.677 1.25281 15.4543 1.27291 15.1738 1.32314ZM17.4084 0.592248C18.0489 1.23356 18.0815 2.10761 17.9141 3.04613C17.7483 3.97879 17.3448 5.18941 16.8374 6.71147L14.1851 14.6684C13.9138 15.4822 13.6911 16.1486 13.4567 16.6417C13.2164 17.1457 12.9075 17.5928 12.3934 17.8197C12.1536 17.925 11.8965 17.9854 11.6349 17.998C11.0731 18.0256 10.5967 17.7636 10.1572 17.4203C9.72604 17.0854 9.22956 16.5881 8.62341 15.982L8.38229 15.7409C8.14452 15.5031 8.08341 15.4462 8.02396 15.406C7.89294 15.3183 7.74093 15.2672 7.58358 15.2578C7.51075 15.2536 7.4287 15.262 7.09548 15.3072L7.01511 15.3181C6.48515 15.3901 6.05984 15.4478 5.7149 15.473C5.36327 15.4997 5.04596 15.4981 4.74205 15.4227C4.2199 15.295 3.74351 15.0247 3.36608 14.6419C2.98864 14.2592 2.72501 13.7791 2.60462 13.2552C2.53513 12.9504 2.53765 12.6331 2.56862 12.2823C2.59876 11.9382 2.66323 11.5129 2.74193 10.9846L2.74528 10.9645C2.79384 10.6422 2.80304 10.5618 2.80053 10.4915C2.7937 10.3259 2.74063 10.1655 2.64732 10.0285C2.60797 9.97076 2.55355 9.91215 2.32248 9.68192L2.05457 9.41401C1.43167 8.79112 0.921806 8.28042 0.578545 7.83837C0.226912 7.38627 -0.0368134 6.89482 0.00421045 6.31798C0.0205327 6.08855 0.0736784 5.86325 0.161608 5.65072C0.383472 5.11573 0.838921 4.79592 1.35549 4.5481C1.8595 4.30531 2.54434 4.07758 3.38073 3.79879L11.2883 1.16323C12.8104 0.655876 14.021 0.2515 14.9537 0.0857309C15.893 -0.0817126 16.7679 -0.0482239 17.4084 0.592248ZM16.7445 2.14361L4.7747 14.1133C4.8601 14.1501 4.94885 14.1803 5.04094 14.2029C5.15564 14.2314 5.32057 14.2431 5.62114 14.2213C5.92337 14.1987 6.31184 14.146 6.86609 14.0706L6.92636 14.0622L6.97492 14.0555C7.2353 14.0204 7.44795 13.9919 7.65893 14.0045C8.03889 14.0274 8.40589 14.1511 8.72221 14.3628C8.89802 14.48 9.04956 14.6324 9.23542 14.8182L9.27059 14.8534L9.48073 15.0627C10.1254 15.7074 10.5674 16.1486 10.9291 16.4307C11.2891 16.7112 11.4649 16.7489 11.5738 16.7439C11.6818 16.7388 11.788 16.7138 11.8869 16.6702C11.9874 16.6258 12.1264 16.5136 12.3223 16.1009C12.5207 15.6873 12.7191 15.0954 13.0071 14.2314L15.6276 6.36821C16.1576 4.78001 16.5301 3.6573 16.6783 2.82678C16.7286 2.54548 16.747 2.32278 16.7445 2.14361Z" fill="black"/>
</svg>
