<svg width="28" height="26" viewBox="0 0 28 26" fill="none" xmlns="http://www.w3.org/2000/svg">
<path d="M16.6998 1.6275L18.9468 5.9375C19.114 6.25477 19.3539 6.52793 19.647 6.7346C19.94 6.94127 20.2779 7.07557 20.6328 7.1265L25.3788 7.7765C27.9168 8.1265 28.9008 11.2555 27.0238 12.9955L23.7738 15.9945C23.4968 16.2491 23.2888 16.5697 23.1694 16.9265C23.05 17.2832 23.0229 17.6645 23.0908 18.0345L23.8838 22.4325C24.3248 24.8825 21.7758 26.7925 19.5388 25.6725L15.0028 23.4225C14.6906 23.2697 14.3475 23.1903 13.9998 23.1903C13.6522 23.1903 13.3091 23.2697 12.9968 23.4225L8.46084 25.6725C6.22284 26.7825 3.67484 24.8825 4.11584 22.4325L4.90884 18.0335C5.04884 17.2835 4.78884 16.5135 4.22684 15.9935L0.97584 12.9955C-0.90116 11.2655 0.0828397 8.1255 2.62084 7.7755L7.36684 7.1255C7.72285 7.07775 8.06206 6.94471 8.35561 6.7377C8.64915 6.53068 8.88835 6.25582 9.05284 5.9365L11.3008 1.6275C12.4448 -0.5425 15.5648 -0.5425 16.6988 1.6275H16.6998Z" fill="#FCD53F"/>
</svg>
