<svg width="16" height="16" viewBox="0 0 16 16" fill="none" xmlns="http://www.w3.org/2000/svg">
<path d="M9.52195 2.33388L4.33995 7.64988C4.24894 7.74325 4.198 7.86849 4.198 7.99888C4.198 8.12927 4.24894 8.2545 4.33995 8.34788L9.52195 13.6659C9.56435 13.7094 9.61503 13.744 9.67103 13.7677C9.72702 13.7913 9.78717 13.8035 9.84795 13.8035C9.90872 13.8035 9.96888 13.7913 10.0249 13.7677C10.0809 13.744 10.1316 13.7094 10.1739 13.6659C10.2612 13.5766 10.31 13.4567 10.31 13.3319C10.31 13.2071 10.2612 13.0872 10.1739 12.9979L5.30095 7.99888L10.1739 3.00088C10.2609 2.91163 10.3095 2.79196 10.3095 2.66738C10.3095 2.54279 10.2609 2.42313 10.1739 2.33388C10.1316 2.29034 10.0809 2.25573 10.0249 2.2321C9.96888 2.20846 9.90872 2.19629 9.84795 2.19629C9.78717 2.19629 9.72702 2.20846 9.67103 2.2321C9.61503 2.25573 9.56435 2.29034 9.52195 2.33388Z" fill="black"/>
</svg>
