<svg width="24" height="24" viewBox="0 0 24 24" fill="none" xmlns="http://www.w3.org/2000/svg">
<circle cx="12" cy="12" r="11.5" fill="#6A9E4F" stroke="#6A9E4F"/>
<path d="M15.1628 3.67073H14.6628V4.17073V5.48976V5.72292L14.8414 5.87279L16.3298 7.12157L17.1512 7.81073V6.73854V4.17073V3.67073H16.6512H15.1628ZM17.2674 7.67512V7.90832L17.4461 8.05819L19.4656 9.75225C19.4785 9.76387 19.4913 9.78486 19.4942 9.8135C19.4972 9.84305 19.4884 9.86972 19.475 9.88729C19.4622 9.9041 19.4486 9.90905 19.4407 9.91003C19.4333 9.91093 19.423 9.9096 19.4113 9.90053L18.8331 9.41511L18.0116 8.72541V9.79805V17.8293V18.3293H18.5116H19.4419C19.4494 18.3293 19.4617 18.3322 19.4747 18.3458C19.4884 18.3601 19.5 18.3845 19.5 18.4146C19.5 18.4448 19.4884 18.4691 19.4747 18.4835C19.4617 18.4971 19.4494 18.5 19.4419 18.5H4.55814C4.55061 18.5 4.53828 18.4971 4.52534 18.4835C4.51163 18.4691 4.5 18.4448 4.5 18.4146C4.5 18.3845 4.51163 18.3601 4.52534 18.3458C4.53828 18.3322 4.55061 18.3293 4.55814 18.3293H5.48837H5.98837V17.8293V9.79805V8.72453L5.16663 9.41532L4.58591 9.9035C4.58586 9.90353 4.58582 9.90357 4.58578 9.9036C4.57338 9.91395 4.56234 9.9155 4.55472 9.91461C4.54671 9.91368 4.53299 9.90877 4.52006 9.89181C4.50653 9.87406 4.49765 9.84707 4.50082 9.81725C4.50397 9.78757 4.51774 9.76626 4.53112 9.75504L4.53124 9.75494L10.5777 4.68177L10.5778 4.68172C10.9845 4.34038 11.4862 4.15713 12 4.15713C12.5137 4.15713 13.0153 4.34033 13.422 4.68157C13.4221 4.68162 13.4221 4.68167 13.4222 4.68172L13.7249 4.93601L14.5465 5.62621V4.55317V3.97561C14.5465 3.69051 14.7616 3.5 14.9767 3.5H16.8372C17.0524 3.5 17.2674 3.69051 17.2674 3.97561V7.67512ZM17.8953 8.86146V8.62829L17.7167 8.47842L13.3678 4.82973C13.3678 4.8297 13.3677 4.82967 13.3677 4.82964C12.9826 4.50642 12.5004 4.32759 12 4.32759C11.4996 4.32759 11.0173 4.50645 10.6322 4.82973L6.28328 8.47842L6.10465 8.62829V8.86146V17.8293V18.3293H6.60465H9.2093H9.7093V17.8293V14.4732C9.7093 13.9434 9.71022 13.5327 9.75135 13.2133L9.7514 13.2129C9.794 12.8799 9.88156 12.6336 10.0616 12.4447C10.2383 12.2594 10.4644 12.172 10.7704 12.1289L10.7708 12.1288C11.0697 12.0865 11.456 12.0854 11.9635 12.0854H12.0365C12.544 12.0854 12.9303 12.0865 13.2292 12.1288L13.2297 12.1289C13.5362 12.172 13.7616 12.2593 13.9384 12.4447C14.1184 12.6336 14.206 12.8799 14.2486 13.2129L14.2487 13.2133C14.2898 13.5327 14.2907 13.9434 14.2907 14.474V17.8293V18.3293H14.7907H17.3953H17.8953V17.8293V8.86146ZM13.6744 18.3293H14.1744V17.8293V14.5122C14.1744 13.9575 14.1739 13.5515 14.1347 13.2427L14.1346 13.2415C14.0956 12.9394 14.0206 12.7362 13.8711 12.5813C13.7227 12.4264 13.5234 12.3415 13.2208 12.2985L13.2194 12.2983C12.9187 12.2565 12.5271 12.2561 12 12.2561C11.4731 12.2561 11.0805 12.2565 10.7804 12.2984L10.7792 12.2985C10.4756 12.3416 10.276 12.4269 10.1274 12.5828C9.98192 12.7354 9.905 12.9349 9.86542 13.2415L9.86525 13.2429C9.82613 13.5524 9.82558 13.9574 9.82558 14.5122V17.8293V18.3293H10.3256H13.6744ZM10.9804 9.69343L11.3422 9.3484L10.9804 9.69344C11.112 9.83151 11.2696 9.94237 11.4448 10.0185L11.644 9.55988L11.4448 10.0185C11.62 10.0946 11.8088 10.1341 12 10.1341C12.3872 10.1341 12.7535 9.9726 13.0196 9.69344L12.6578 9.3484L13.0196 9.69343C13.2851 9.41508 13.4302 9.04241 13.4302 8.65854C13.4302 8.27466 13.2851 7.902 13.0196 7.62364L12.6578 7.96868L13.0196 7.62364C12.7535 7.34447 12.3872 7.18293 12 7.18293C11.8088 7.18293 11.62 7.22246 11.4448 7.29859C11.2696 7.3747 11.112 7.48557 10.9804 7.62364L11.3422 7.96868L10.9804 7.62364C10.8488 7.76166 10.7455 7.92424 10.6755 8.10152C10.6055 8.27877 10.5698 8.46797 10.5698 8.65854C10.5698 8.8491 10.6055 9.03831 10.6755 9.21555C10.7455 9.39283 10.8488 9.55541 10.9804 9.69343ZM10.4535 8.65854C10.4535 8.21442 10.6219 7.793 10.9148 7.48588C11.2068 7.17957 11.5977 7.0122 12 7.0122C12.4023 7.0122 12.7932 7.17957 13.0852 7.48588C13.3781 7.793 13.5465 8.21442 13.5465 8.65854C13.5465 9.10265 13.3781 9.52407 13.0852 9.83119C12.7932 10.1375 12.4023 10.3049 12 10.3049C11.5977 10.3049 11.2068 10.1375 10.9148 9.83119C10.6219 9.52407 10.4535 9.10265 10.4535 8.65854Z" fill="#BBBBBB" stroke="white"/>
</svg>
