<svg width="24" height="24" viewBox="0 0 24 24" fill="none" xmlns="http://www.w3.org/2000/svg">
<circle cx="12" cy="12" r="11.75" fill="#6A9E4F" stroke="#6A9E4F" stroke-width="0.5"/>
<path d="M8.88883 6.10526L7.99994 4C7.03683 4.35074 4.97772 6.4421 5.33327 9.47368M15.1111 6.10526L15.9999 4C16.9631 4.35074 19.0222 6.4421 18.6666 9.47368" stroke="white" stroke-linecap="round" stroke-linejoin="round"/>
<path d="M20 13.8948C20 17.9643 16.4182 20.0001 12 20.0001C7.58178 20.0001 4 17.9643 4 13.8948C4 9.82538 7.58178 5.68433 12 5.68433C16.4182 5.68433 20 9.82538 20 13.8948Z" stroke="white"/>
<path d="M10.2221 9.89466C10.7131 9.89466 11.111 9.51764 11.111 9.05255C11.111 8.58747 10.7131 8.21045 10.2221 8.21045C9.73122 8.21045 9.33325 8.58747 9.33325 9.05255C9.33325 9.51764 9.73122 9.89466 10.2221 9.89466Z" fill="white"/>
<path d="M13.7778 9.89466C14.2687 9.89466 14.6667 9.51764 14.6667 9.05255C14.6667 8.58747 14.2687 8.21045 13.7778 8.21045C13.2869 8.21045 12.8889 8.58747 12.8889 9.05255C12.8889 9.51764 13.2869 9.89466 13.7778 9.89466Z" fill="white"/>
<path d="M11.9999 12.842C11.9999 13.5397 12.2221 15.1578 10.6666 15.1578C10.313 15.1578 9.97382 15.0247 9.72378 14.7879C9.47373 14.551 9.33325 14.2297 9.33325 13.8947" stroke="white" stroke-linecap="round" stroke-linejoin="round"/>
<path d="M12.0112 12.842C12.0112 13.5397 11.789 15.1578 13.3446 15.1578C13.6982 15.1578 14.0373 15.0247 14.2874 14.7879C14.5374 14.551 14.6779 14.2297 14.6779 13.8947" stroke="white" stroke-linecap="round" stroke-linejoin="round"/>
<path d="M12.8889 12.7368C12.8889 13.0273 12 13.4736 12 13.4736C12 13.4736 11.1111 13.0273 11.1111 12.7368C11.1111 12.4462 11.3333 12.2104 12 12.2104C12.6666 12.2104 12.8889 12.4462 12.8889 12.7368Z" stroke="white" stroke-linejoin="round"/>
</svg>
