<svg width="24" height="24" viewBox="0 0 24 24" fill="none" xmlns="http://www.w3.org/2000/svg">
<circle cx="12" cy="12" r="11.75" fill="white" stroke="#D4D4D8" stroke-width="0.5"/>
<path fill-rule="evenodd" clip-rule="evenodd" d="M11.9979 5.84211C11.1944 5.84211 10.4566 6.10568 9.88729 6.54863C9.56875 6.79705 9.30363 7.10189 9.11353 7.44632C9.05954 7.54449 8.96172 7.62198 8.84016 7.66286C8.71861 7.70374 8.58256 7.7049 8.45999 7.66611C6.77784 7.56253 5.23647 8.65389 5.04636 10.2185C4.91792 11.288 5.46459 12.2733 6.36269 12.8526C6.46443 12.9183 6.52711 13.0084 6.54971 13.1044C6.59653 13.1904 6.60666 13.2868 6.57849 13.3781C6.48267 13.6894 6.45141 14.0116 6.486 14.3314C6.62987 15.6821 8.20309 16.6278 9.62218 16.5099C10.1699 16.4644 10.5532 16.3903 10.8419 16.2531C11.0998 16.1301 11.3218 15.9381 11.5016 15.5878C11.5202 15.5299 11.5536 15.4759 11.5997 15.4294C11.6458 15.3829 11.7034 15.345 11.7688 15.3182C11.8341 15.2915 11.9057 15.2764 11.9787 15.2741C12.0517 15.2718 12.1245 15.2823 12.1922 15.3048C12.2669 15.3291 12.3336 15.3675 12.387 15.4168C12.4404 15.4661 12.4789 15.5249 12.4994 15.5886C12.6792 15.9381 12.9002 16.1301 13.1591 16.2531C13.4468 16.3903 13.8311 16.4644 14.3778 16.5099C15.7969 16.6278 17.3701 15.6821 17.514 14.3314C17.5486 14.0116 17.5173 13.6894 17.4215 13.3781C17.3933 13.2865 17.4038 13.1897 17.4513 13.1036C17.4744 13.0043 17.5404 12.9152 17.6373 12.8526C18.5364 12.2733 19.0831 11.288 18.9536 10.2185C18.7646 8.65221 17.2181 7.56 15.5349 7.66695C15.4123 7.70544 15.2764 7.70402 15.1551 7.663C15.0337 7.62197 14.9362 7.54444 14.8824 7.44632C14.6976 7.10896 14.4348 6.80412 14.1086 6.54863C13.5429 6.09844 12.7865 5.84524 11.9979 5.84211ZM15.6459 6.81895C15.4255 6.49261 15.1459 6.19561 14.8166 5.93811C14.0599 5.33919 13.05 5.00308 11.9979 5C10.9459 5.00299 9.93598 5.33912 9.17929 5.93811C8.85355 6.19158 8.57302 6.48884 8.35003 6.81811C6.13046 6.76421 4.25513 8.22526 4.02392 10.1368C3.86979 11.4084 4.47092 12.6076 5.52624 13.3773C5.44735 13.7157 5.42625 14.0615 5.46356 14.4046C5.6588 16.2413 7.75918 17.512 9.72596 17.3486C10.3137 17.2998 10.8748 17.2114 11.3567 16.9823C11.6034 16.8653 11.8161 16.7179 12 16.536C12.185 16.7179 12.3977 16.8653 12.6433 16.9823C13.1262 17.2114 13.6873 17.2998 14.2751 17.3486C16.2419 17.512 18.3422 16.2413 18.5375 14.4055C18.575 14.0623 18.5536 13.7164 18.4738 13.3781C19.5291 12.6076 20.1302 11.4084 19.9761 10.136C19.7449 8.22358 17.8665 6.76337 15.6459 6.81895Z" fill="#6A9E4F"/>
<path fill-rule="evenodd" clip-rule="evenodd" d="M15.1104 11.0993C15.1451 11.1467 15.1681 11.1993 15.178 11.254C15.1879 11.3087 15.1845 11.3645 15.1681 11.4181C15.1517 11.4718 15.1225 11.5223 15.0823 11.5667C15.0421 11.6111 14.9916 11.6486 14.9337 11.677L12.6144 12.8172V20.5789C12.6144 20.6905 12.5603 20.7976 12.464 20.8766C12.3676 20.9556 12.2369 20.9999 12.1007 20.9999C11.9644 20.9999 11.8337 20.9556 11.7374 20.8766C11.641 20.7976 11.5869 20.6905 11.5869 20.5789V14.9224L9.26762 13.7831C9.1507 13.7257 9.0664 13.6326 9.03325 13.5242C9.00011 13.4159 9.02083 13.3012 9.09087 13.2054C9.16092 13.1096 9.27453 13.0405 9.40673 13.0133C9.53893 12.9862 9.67888 13.0032 9.79579 13.0606L11.5869 13.9414V9.6315C11.5869 9.51983 11.641 9.41274 11.7374 9.33377C11.8337 9.25481 11.9644 9.21045 12.1007 9.21045C12.2369 9.21045 12.3676 9.25481 12.464 9.33377C12.5603 9.41274 12.6144 9.51983 12.6144 9.6315V11.8353L14.4055 10.9544C14.4634 10.926 14.5276 10.9072 14.5943 10.8991C14.6611 10.891 14.7291 10.8937 14.7946 10.9072C14.8601 10.9206 14.9216 10.9445 14.9758 10.9775C15.03 11.0105 15.0758 11.0518 15.1104 11.0993Z" fill="#6A9E4F"/>
</svg>
