<svg width="24" height="24" viewBox="0 0 24 24" fill="none" xmlns="http://www.w3.org/2000/svg">
<path d="M12 3C17.8 3 22.501 6.664 22.501 11.185C22.501 15.705 17.8 19.369 12.001 19.369C11.4236 19.3693 10.8467 19.3325 10.274 19.259L5.86598 22.142C5.36498 22.407 5.18798 22.378 5.39398 21.729L6.28598 18.051C3.40598 16.591 1.50098 14.061 1.50098 11.185C1.50098 6.665 6.20098 3 12.001 3H12ZM17.908 11.06L19.378 9.636C19.4628 9.54791 19.5101 9.43033 19.51 9.30804C19.5098 9.18575 19.4622 9.06829 19.3772 8.98041C19.2922 8.89252 19.1763 8.84107 19.0541 8.83689C18.9319 8.83271 18.8128 8.87613 18.722 8.958L16.794 10.824V9.282C16.794 9.15682 16.7442 9.03676 16.6557 8.94825C16.5672 8.85973 16.4472 8.81 16.322 8.81C16.1968 8.81 16.0767 8.85973 15.9882 8.94825C15.8997 9.03676 15.85 9.15682 15.85 9.282V11.839C15.8323 11.9119 15.8323 11.9881 15.85 12.061V13.5C15.85 13.6252 15.8997 13.7452 15.9882 13.8338C16.0767 13.9223 16.1968 13.972 16.322 13.972C16.4472 13.972 16.5672 13.9223 16.6557 13.8338C16.7442 13.7452 16.794 13.6252 16.794 13.5V12.137L17.221 11.724L18.649 13.757C18.6846 13.8078 18.7299 13.851 18.7823 13.8842C18.8347 13.9175 18.8931 13.9401 18.9542 13.9508C19.0153 13.9615 19.0779 13.96 19.1384 13.9465C19.1989 13.933 19.2562 13.9077 19.307 13.872C19.3577 13.8363 19.401 13.791 19.4342 13.7387C19.4675 13.6863 19.4901 13.6279 19.5008 13.5668C19.5114 13.5057 19.51 13.4431 19.4965 13.3826C19.4829 13.322 19.4576 13.2648 19.422 13.214L17.908 11.059V11.06ZM14.95 12.984H13.49V9.297C13.4844 9.17571 13.4323 9.06123 13.3445 8.97737C13.2566 8.89351 13.1399 8.84672 13.0185 8.84672C12.8971 8.84672 12.7803 8.89351 12.6925 8.97737C12.6047 9.06123 12.5526 9.17571 12.547 9.297V13.456C12.547 13.716 12.757 13.928 13.018 13.928H14.95C15.0752 13.928 15.1952 13.8783 15.2837 13.7898C15.3722 13.7012 15.422 13.5812 15.422 13.456C15.422 13.3308 15.3722 13.2108 15.2837 13.1222C15.1952 13.0337 15.0752 12.984 14.95 12.984ZM9.09298 11.893L9.78898 10.185L10.427 11.892L9.09298 11.893ZM11.616 12.38L11.618 12.364C11.6177 12.2451 11.5723 12.1307 11.491 12.044L10.445 9.244C10.4011 9.11057 10.3176 8.99369 10.2056 8.90899C10.0935 8.8243 9.95831 8.7758 9.81798 8.77C9.67662 8.76938 9.53842 8.81182 9.42177 8.89167C9.30512 8.97152 9.21555 9.08499 9.16498 9.217L7.50298 13.292C7.45564 13.4079 7.45627 13.5379 7.50475 13.6533C7.55323 13.7687 7.64558 13.8602 7.76148 13.9075C7.87738 13.9548 8.00734 13.9542 8.12276 13.9057C8.23819 13.8572 8.32964 13.7649 8.37698 13.649L8.70898 12.836H10.779L11.077 13.636C11.0973 13.6958 11.1294 13.7509 11.1714 13.7981C11.2135 13.8452 11.2645 13.8835 11.3216 13.9105C11.3786 13.9376 11.4406 13.9529 11.5037 13.9557C11.5668 13.9584 11.6298 13.9484 11.6889 13.9263C11.7481 13.9042 11.8022 13.8704 11.8481 13.8271C11.894 13.7837 11.9307 13.7315 11.9561 13.6737C11.9815 13.6158 11.995 13.5535 11.9958 13.4903C11.9967 13.4272 11.9848 13.3645 11.961 13.306L11.616 12.38ZM8.29398 9.302C8.29398 9.17699 8.24439 9.05709 8.15608 8.9686C8.06778 8.88011 7.94799 8.83026 7.82298 8.83H4.57798C4.45279 8.83 4.33274 8.87973 4.24422 8.96825C4.1557 9.05676 4.10598 9.17682 4.10598 9.302C4.10598 9.42718 4.1557 9.54724 4.24422 9.63575C4.33274 9.72427 4.45279 9.774 4.57798 9.774H5.73798V13.51C5.73798 13.6352 5.7877 13.7552 5.87622 13.8438C5.96474 13.9323 6.08479 13.982 6.20998 13.982C6.33516 13.982 6.45521 13.9323 6.54373 13.8438C6.63225 13.7552 6.68198 13.6352 6.68198 13.51V9.774H7.82198C7.94716 9.774 8.06721 9.72427 8.15573 9.63575C8.24425 9.54724 8.29398 9.42718 8.29398 9.302Z" fill="#FAE100"/>
</svg>
