<svg width="12" height="14" viewBox="0 0 12 14" fill="none" xmlns="http://www.w3.org/2000/svg">
<path d="M11.5408 0H7.68367C7.63316 0 7.59184 0.0482143 7.59184 0.107143V1.10714C7.59184 1.16607 7.63316 1.21429 7.68367 1.21429H10.1388L7.08826 4.77321C6.32296 4.08571 5.38929 3.71429 4.40816 3.71429C3.23112 3.71429 2.12296 4.25 1.29184 5.22143C0.460714 6.19286 0 7.48393 0 8.85714C0 10.2304 0.459184 11.5232 1.29184 12.4929C2.12296 13.4643 3.23112 14 4.40816 14C5.5852 14 6.69337 13.4643 7.52449 12.4929C8.35714 11.5232 8.81633 10.2304 8.81633 8.85714C8.81633 7.7125 8.49796 6.62679 7.9102 5.73393L10.9592 2.17679V5.03571C10.9592 5.09464 11.0005 5.14286 11.051 5.14286H11.9082C11.9587 5.14286 12 5.09464 12 5.03571V0.535714C12 0.241071 11.7934 0 11.5408 0ZM4.40816 12.6429C2.61888 12.6429 1.16327 10.9446 1.16327 8.85714C1.16327 6.76964 2.61888 5.07143 4.40816 5.07143C6.19745 5.07143 7.65306 6.76964 7.65306 8.85714C7.65306 10.9446 6.19745 12.6429 4.40816 12.6429Z" fill="#6A9E4F"/>
</svg>
