<svg width="10" height="14" viewBox="0 0 10 14" fill="none" xmlns="http://www.w3.org/2000/svg">
<path d="M8.53521 7.575C9.47887 6.7375 10 5.62187 10 4.4375C10 3.25156 9.48063 2.1375 8.53521 1.3C7.59155 0.4625 6.33451 0 5 0C3.66549 0 2.40845 0.460937 1.46479 1.3C0.521127 2.13906 0 3.25156 0 4.4375C0 5.43437 0.367958 6.38125 1.04577 7.15469C1.1743 7.30156 1.31338 7.44062 1.46303 7.575C1.61268 7.70781 1.77113 7.83125 1.93486 7.94531C2.63204 8.42656 3.45423 8.73281 4.33099 8.83594V10.5H2.32394C2.24648 10.5 2.1831 10.5562 2.1831 10.625V11.5625C2.1831 11.6313 2.24648 11.6875 2.32394 11.6875H4.33099V13.875C4.33099 13.9438 4.39437 14 4.47183 14H5.52817C5.60563 14 5.66901 13.9438 5.66901 13.875V11.6875H7.67606C7.75352 11.6875 7.8169 11.6313 7.8169 11.5625V10.625C7.8169 10.5562 7.75352 10.5 7.67606 10.5H5.66901V8.83594C6.75176 8.70781 7.75 8.27187 8.53521 7.575ZM5 7.6875C4.02113 7.6875 3.10387 7.35 2.41021 6.73594C1.71831 6.12188 1.33803 5.30625 1.33803 4.4375C1.33803 3.56875 1.71831 2.75469 2.41021 2.13906C3.10211 1.52344 4.02113 1.1875 5 1.1875C5.97887 1.1875 6.89613 1.525 7.58979 2.13906C8.28169 2.75312 8.66197 3.56875 8.66197 4.4375C8.66197 5.30625 8.28169 6.12031 7.58979 6.73594C6.89613 7.35 5.97887 7.6875 5 7.6875Z" fill="#6A9E4F"/>
</svg>
