<svg width="345" height="345" viewBox="0 0 345 345" fill="none" xmlns="http://www.w3.org/2000/svg">
<g clip-path="url(#clip0_445_1065)">
<path d="M243.61 345.674C244.659 345.078 245.303 344.179 246.139 343.932C253.907 341.643 261.638 339.154 269.524 337.359C275.3 336.043 281.289 335.643 287.191 334.901C295.644 333.84 304.284 333.969 311.877 328.915C321.505 322.506 327.207 313.952 328.912 302.416C330.711 290.25 326.45 280.283 318.431 271.752C313.457 266.46 307.018 263.18 299.717 262.16C294.387 261.416 291.797 258.324 290.407 253.362C286.314 238.747 276.73 230.022 261.779 227.041C241.41 222.981 222.253 237.663 219.741 256.325C219.175 260.53 219.35 264.901 219.724 269.148C220.16 274.093 217.761 277.196 213.947 279.487C196.913 289.715 193.106 314.68 204.194 330.189C209.277 337.299 215.821 342.428 224.532 344.421C224.905 344.507 225.189 344.982 225.286 345.474C231.137 345.674 237.216 345.674 243.61 345.674Z" fill="#69B783"/>
<path d="M72.414 0.673828C71.6187 1.26038 71.2556 2.05606 70.6398 2.40237C59.8407 8.47537 53.4832 18.3482 50.8797 29.7297C47.8586 42.9367 55.8315 54.6462 69.5751 56.6839C81.9365 58.5166 92.3922 50.1785 94.0471 41.3963C96.6232 27.7255 95.3093 14.5495 85.3987 3.55897C84.5272 2.59252 83.4216 1.8372 82.6527 0.828823C79.4967 0.673822 76.1126 0.673822 72.414 0.673828Z" fill="#69B783"/>
<path d="M55.0395 96.1867C54.2428 98.1396 53.3731 99.839 53.0092 101.641C51.833 107.464 48.316 110.28 42.502 111.204C30.9654 113.037 22.8995 119.971 17.5991 130C11.276 141.965 12.0203 154.178 18.9544 165.506C25.0368 175.443 34.0268 181.692 46.1413 182.629C62.5186 183.897 78.605 186.537 94.0395 192.536C102.795 195.94 111.878 196.609 120.837 193.282C132.026 189.127 142.3 178.75 144.292 165.409C145.603 156.635 144.902 148.261 140.011 140.942C136.818 136.162 132.541 131.947 128.154 128.171C124.033 124.625 123.19 123.26 123.893 117.867C125.463 105.812 122.649 94.5856 113.908 86.1658C100.047 72.8134 79.9098 71.3832 64.3553 84.09C60.2815 87.4179 57.3651 91.3348 55.0395 96.1867Z" fill="#69B783"/>
<path d="M149.778 62.1423C155.103 56.045 156.277 48.8439 155.479 41.5007C154.87 35.9094 153.458 30.2602 151.438 25.0081C149.363 19.6113 146.415 14.39 139.708 13.2424C134.579 12.3649 130.447 14.69 126.902 17.7537C119.087 24.5075 113.209 32.589 110.913 42.9687C108.346 54.5756 116.746 68.3174 130.114 69.4787C137.898 70.1549 144.291 67.9253 149.778 62.1423Z" fill="#69B783"/>
<path d="M275.789 154.766C268.835 149.756 260.654 150.207 255.695 158.251C252.101 164.08 250.339 170.348 249.219 177.022C248.22 182.978 248.574 188.673 250.683 194.232C253.462 201.552 258.921 205.866 266.513 207.535C277.651 209.984 287.59 204.305 292.013 194.659C294.498 189.242 294.535 183.325 292.417 177.599C289.058 168.515 283.81 160.779 275.789 154.766Z" fill="#69B783"/>
<path d="M193.528 212.051C198.073 217.196 203.727 220.088 210.174 220.215C221.33 220.435 231.889 213.118 233.141 200.211C234.092 190.396 229.874 182.381 223.912 175.186C221.207 171.921 217.906 169.088 214.599 166.397C208.117 161.121 199.337 163.371 195.26 170.27C191.142 177.24 189.082 184.728 188.66 192.755C188.3 199.615 188.743 206.25 193.528 212.051Z" fill="#69B783"/>
<path d="M197.441 266.099C203.939 255.174 199.625 243.811 190.686 237.167C185.116 233.028 179.338 229.345 172.588 227.494C167.356 226.06 162.059 225.098 157.906 229.929C154.967 233.347 154.755 237.694 155.069 241.835C155.634 249.31 157.782 256.411 161.147 263.162C165.365 271.626 172.091 275.997 181.522 275.527C188.225 275.192 193.672 272.121 197.441 266.099Z" fill="#69B783"/>
<path d="M39.0898 64.0569C34.7941 56.2575 30.028 49.1866 22.5047 44.3955C18.3438 41.7456 10.9505 41.0462 7.06604 47.0077C3.84245 51.955 2.0623 57.4206 1.67165 63.0112C1.09314 71.2902 -0.129099 79.8274 5.3065 87.4322C12.0908 96.9239 25.9286 98.1317 34.5591 91.2538C42.5747 84.866 43.8634 72.7089 39.0898 64.0569Z" fill="#69B783"/>
<path d="M309.765 207.335C304.896 213.936 301.325 220.62 301.796 229.058C302.416 240.192 314.12 249.297 325.381 247.031C337.09 244.675 342.403 235.918 342.323 225.273C342.276 218.854 342.714 212.379 340.251 206.26C339.073 203.331 337.9 200.284 336.077 197.757C333.144 193.69 328.336 192.895 323.28 195.239C317.652 197.848 313.55 202.251 309.765 207.335Z" fill="#69B783"/>
<path d="M165.538 125.332C173.361 124.282 178.407 119.832 181.87 113.409C186.293 105.208 188.719 96.512 188.015 87.0738C187.443 79.413 183.615 76.0402 176.179 76.763C164.282 77.9195 154.709 83.7341 147.302 92.483C138.481 102.902 142.533 119.209 155.853 123.949C158.773 124.988 162.095 124.9 165.538 125.332Z" fill="#69B783"/>
</g>
<defs>
<clipPath id="clip0_445_1065">
<rect width="345" height="345" fill="white" transform="matrix(-1 0 0 1 345 0)"/>
</clipPath>
</defs>
</svg>
